{
  "source": "C:\\Users\\Peter\\Desktop\\stuff\\MIUN\\quantitative_research\\video_compression\\videos\\BVI-HD\\BVI-HD_CDVL_videos\\ORIG\\RockWater_1920x1080_30fps.mp4",
  "output": "C:\\Users\\Peter\\Desktop\\stuff\\MIUN\\quantitative_research\\video_compression\\compressed_videos\\BVI-HD\\hevc\\2.5\\RockWater_1920x1080_30fps_hevc.mp4",
  "codec": "hevc",
  "ok": "Input #0, mov,mp4,m4a,3gp,3g2,mj2, from 'C:\\Users\\Peter\\Desktop\\stuff\\MIUN\\quantitative_research\\video_compression\\videos\\BVI-HD\\BVI-HD_CDVL_videos\\ORIG\\RockWater_1920x1080_30fps.mp4':\n  Metadata:\n    major_brand     : isom\n    minor_version   : 512\n    compatible_brands: isomiso2avc1mp41\n    encoder         : Lavf54.28.101\n  Duration: 00:00:05.00, start: 0.000000, bitrate: 245943 kb/s\n  Stream #0:0[0x1](und): Video: h264 (High 4:4:4 Predictive) (avc1 / 0x31637661), yuv420p(progressive), 1920x1080, 245940 kb/s, 30 fps, 30 tbr, 30 tbn (default)\n    Metadata:\n      handler_name    : VideoHandler\n      vendor_id       : [0][0][0][0]\n[out#0/mp4 @ 000001d2ab6dabc0] Codec AVOption b:a (set bitrate (in bits/s)) has not been used for any stream. The most likely reason is either wrong type (e.g. a video option with no video streams) or that it is a private option of some decoder which was not actually used for any stream.\nStream mapping:\n  Stream #0:0 -> #0:0 (h264 (native) -> hevc (libx265))\nPress [q] to stop, [?] for help\n[libx265 @ 000001d2ab6dd380] Unknown option: \"aq-mode.\nx265 [info]: HEVC encoder version 4.1+190-8f11c33ac\nx265 [info]: build info [Windows][GCC 15.1.0][64 bit] 10bit\nx265 [info]: using cpu capabilities: MMX2 SSE2Fast LZCNT SSSE3 SSE4.2 AVX FMA3 BMI2 AVX2\nx265 [info]: Main 10 profile, Level-4 (Main tier)\nx265 [info]: Thread pool created using 12 threads\nx265 [info]: Slices                              : 1\nx265 [info]: frame threads / pool features       : 3 / wpp(17 rows)\nx265 [info]: Coding QT: max CU size, min CU size : 64 / 8\nx265 [info]: Residual QT: max TU size, max depth : 32 / 1 inter / 1 intra\nx265 [info]: ME / range / subpel / merge         : star / 57 / 3 / 3\nx265 [info]: Keyframe min / max / scenecut / bias  : 25 / 250 / 40 / 5.00 \nx265 [info]: Lookahead / bframes / badapt        : 25 / 4 / 2\nx265 [info]: b-pyramid / weightp / weightb       : 1 / 1 / 0\nx265 [info]: References / ref-limit  cu / depth  : 4 / on / on\nx265 [info]: AQ: mode / str / qg-size / cu-tree  : 2 / 1.0 / 32 / 1\nx265 [info]: Rate Control / qCompress            : ABR-2500 kbps / 0.60\nx265 [info]: VBV/HRD buffer / max-rate / init    : 2500 / 2500 / 0.750\nx265 [info]: tools: rect limit-modes rd=4 psy-rd=2.00 rdoq=2 psy-rdoq=1.00\nx265 [info]: tools: rskip mode=1 signhide tmvp strong-intra-smoothing lslices=4\nx265 [info]: tools: deblock sao dhdr10-info\nOutput #0, mp4, to 'C:\\Users\\Peter\\Desktop\\stuff\\MIUN\\quantitative_research\\video_compression\\compressed_videos\\BVI-HD\\hevc\\2.5\\RockWater_1920x1080_30fps_hevc.mp4':\n  Metadata:\n    major_brand     : isom\n    minor_version   : 512\n    compatible_brands: isomiso2avc1mp41\n    encoder         : Lavf62.3.100\n  Stream #0:0(und): Video: hevc (hev1 / 0x31766568), yuv420p10le(tv, progressive), 1920x1080, q=2-31, 2500 kb/s, 30 fps, 15360 tbn (default)\n    Metadata:\n      encoder         : Lavc62.11.100 libx265\n      handler_name    : VideoHandler\n      vendor_id       : [0][0][0][0]\n    Side data:\n      cpb: bitrate max/min/avg: 2500000/0/2500000 buffer size: 2500000 vbv_delay: N/A\nframe=    0 fps=0.0 q=0.0 size=       0KiB time=N/A bitrate=N/A speed=N/A elapsed=0:00:01.02    \nframe=    0 fps=0.0 q=0.0 size=       0KiB time=N/A bitrate=N/A speed=N/A elapsed=0:00:01.55    \nframe=    0 fps=0.0 q=0.0 size=       0KiB time=N/A bitrate=N/A speed=N/A elapsed=0:00:02.11    \nframe=    0 fps=0.0 q=0.0 size=       0KiB time=N/A bitrate=N/A speed=N/A elapsed=0:00:02.69    \nframe=    0 fps=0.0 q=0.0 size=       0KiB time=N/A bitrate=N/A speed=N/A elapsed=0:00:03.23    \nframe=    0 fps=0.0 q=0.0 size=       0KiB time=N/A bitrate=N/A speed=N/A elapsed=0:00:03.79    \nframe=    0 fps=0.0 q=0.0 size=       0KiB time=N/A bitrate=N/A speed=N/A elapsed=0:00:04.40    \nframe=    0 fps=0.0 q=0.0 size=       0KiB time=N/A bitrate=N/A speed=N/A elapsed=0:00:05.08    \nframe=    0 fps=0.0 q=0.0 size=       0KiB time=N/A bitrate=N/A speed=N/A elapsed=0:00:05.69    \nframe=    0 fps=0.0 q=0.0 size=       0KiB time=N/A bitrate=N/A speed=N/A elapsed=0:00:06.36    \nframe=    0 fps=0.0 q=0.0 size=       0KiB time=N/A bitrate=N/A speed=N/A elapsed=0:00:06.90    \nframe=    0 fps=0.0 q=0.0 size=       0KiB time=N/A bitrate=N/A speed=N/A elapsed=0:00:07.53    \nframe=    1 fps=0.1 q=36.9 size=       0KiB time=-00:00:00.03 bitrate=N/A speed=N/A elapsed=0:00:08.21    \nframe=    1 fps=0.1 q=36.9 size=       0KiB time=-00:00:00.03 bitrate=N/A speed=N/A elapsed=0:00:08.90    \nframe=    1 fps=0.1 q=36.9 size=       0KiB time=-00:00:00.03 bitrate=N/A speed=N/A elapsed=0:00:09.44    \nframe=    1 fps=0.1 q=36.9 size=       0KiB time=-00:00:00.03 bitrate=N/A speed=N/A elapsed=0:00:09.99    \nframe=    1 fps=0.1 q=36.9 size=       0KiB time=-00:00:00.03 bitrate=N/A speed=N/A elapsed=0:00:10.51    \nframe=    1 fps=0.1 q=36.9 size=       0KiB time=-00:00:00.03 bitrate=N/A speed=N/A elapsed=0:00:11.12    \nframe=    1 fps=0.1 q=36.9 size=       0KiB time=-00:00:00.03 bitrate=N/A speed=N/A elapsed=0:00:11.70    \nframe=    2 fps=0.2 q=41.9 size=       0KiB time=00:00:00.00 bitrate=N/A speed=   0x elapsed=0:00:12.28    \nframe=    2 fps=0.2 q=41.9 size=       0KiB time=00:00:00.00 bitrate=N/A speed=   0x elapsed=0:00:12.80    \nframe=    3 fps=0.2 q=44.3 size=       0KiB time=00:00:00.03 bitrate=  10.6kbits/s speed=0.0025x elapsed=0:00:13.34    \nframe=    3 fps=0.2 q=44.3 size=       0KiB time=00:00:00.03 bitrate=  10.6kbits/s speed=0.0024x elapsed=0:00:13.88    \nframe=    3 fps=0.2 q=44.3 size=       0KiB time=00:00:00.03 bitrate=  10.6kbits/s speed=0.00231x elapsed=0:00:14.40    \nframe=    3 fps=0.2 q=44.3 size=       0KiB time=00:00:00.03 bitrate=  10.6kbits/s speed=0.00223x elapsed=0:00:14.93    \nframe=    4 fps=0.3 q=44.8 size=       0KiB time=00:00:00.06 bitrate=   5.3kbits/s speed=0.00432x elapsed=0:00:15.44    \nframe=    4 fps=0.3 q=44.8 size=       0KiB time=00:00:00.06 bitrate=   5.3kbits/s speed=0.00417x elapsed=0:00:15.97    \nframe=    4 fps=0.2 q=44.8 size=       0KiB time=00:00:00.06 bitrate=   5.3kbits/s speed=0.00404x elapsed=0:00:16.49    \nframe=    5 fps=0.3 q=38.0 size=       0KiB time=00:00:00.10 bitrate=   3.5kbits/s speed=0.00588x elapsed=0:00:17.00    \nframe=    5 fps=0.3 q=38.0 size=       0KiB time=00:00:00.10 bitrate=   3.5kbits/s speed=0.00571x elapsed=0:00:17.52    \nframe=    6 fps=0.3 q=42.0 size=       0KiB time=00:00:00.13 bitrate=   2.6kbits/s speed=0.00739x elapsed=0:00:18.04    \nframe=    6 fps=0.3 q=42.0 size=       0KiB time=00:00:00.13 bitrate=   2.6kbits/s speed=0.00718x elapsed=0:00:18.56    \nframe=    6 fps=0.3 q=42.0 size=       0KiB time=00:00:00.13 bitrate=   2.6kbits/s speed=0.00698x elapsed=0:00:19.09    \nframe=    6 fps=0.3 q=42.0 size=       0KiB time=00:00:00.13 bitrate=   2.6kbits/s speed=0.00679x elapsed=0:00:19.62    \nframe=    8 fps=0.4 q=42.3 size=       0KiB time=00:00:00.20 bitrate=   1.8kbits/s speed=0.00991x elapsed=0:00:20.18    \nframe=    8 fps=0.4 q=42.3 size=       0KiB time=00:00:00.20 bitrate=   1.8kbits/s speed=0.00966x elapsed=0:00:20.70    \nframe=    8 fps=0.4 q=42.3 size=       0KiB time=00:00:00.20 bitrate=   1.8kbits/s speed=0.00943x elapsed=0:00:21.20    \nframe=    8 fps=0.4 q=42.3 size=       0KiB time=00:00:00.20 bitrate=   1.8kbits/s speed=0.00921x elapsed=0:00:21.72    \nframe=    8 fps=0.4 q=42.3 size=       0KiB time=00:00:00.20 bitrate=   1.8kbits/s speed=0.00898x elapsed=0:00:22.28    \nframe=    8 fps=0.4 q=42.3 size=       0KiB time=00:00:00.20 bitrate=   1.8kbits/s speed=0.00877x elapsed=0:00:22.80    \nframe=    8 fps=0.3 q=42.3 size=       0KiB time=00:00:00.20 bitrate=   1.8kbits/s speed=0.00855x elapsed=0:00:23.39    \nframe=    8 fps=0.3 q=42.3 size=       0KiB time=00:00:00.20 bitrate=   1.8kbits/s speed=0.00833x elapsed=0:00:24.02    \nframe=    8 fps=0.3 q=42.3 size=       0KiB time=00:00:00.20 bitrate=   1.8kbits/s speed=0.00813x elapsed=0:00:24.59    \nframe=    8 fps=0.3 q=42.3 size=       0KiB time=00:00:00.20 bitrate=   1.8kbits/s speed=0.00793x elapsed=0:00:25.21    \nframe=    8 fps=0.3 q=42.3 size=       0KiB time=00:00:00.20 bitrate=   1.8kbits/s speed=0.00774x elapsed=0:00:25.83    \nframe=    8 fps=0.3 q=42.3 size=       0KiB time=00:00:00.20 bitrate=   1.8kbits/s speed=0.00757x elapsed=0:00:26.42    \nframe=    9 fps=0.3 q=39.9 size=       0KiB time=00:00:00.23 bitrate=   1.5kbits/s speed=0.00866x elapsed=0:00:26.94    \nframe=    9 fps=0.3 q=39.9 size=       0KiB time=00:00:00.23 bitrate=   1.5kbits/s speed=0.00848x elapsed=0:00:27.50    \nframe=   10 fps=0.4 q=41.2 size=       0KiB time=00:00:00.23 bitrate=   1.5kbits/s speed=0.00831x elapsed=0:00:28.06    \nframe=   10 fps=0.3 q=41.2 size=       0KiB time=00:00:00.26 bitrate=   1.3kbits/s speed=0.00932x elapsed=0:00:28.62    \nframe=   10 fps=0.3 q=41.2 size=       0KiB time=00:00:00.26 bitrate=   1.3kbits/s speed=0.00914x elapsed=0:00:29.18    \nframe=   10 fps=0.3 q=41.2 size=       0KiB time=00:00:00.26 bitrate=   1.3kbits/s speed=0.00897x elapsed=0:00:29.74    \nframe=   10 fps=0.3 q=41.2 size=       0KiB time=00:00:00.26 bitrate=   1.3kbits/s speed=0.0088x elapsed=0:00:30.31    \nframe=   10 fps=0.3 q=41.2 size=       0KiB time=00:00:00.26 bitrate=   1.3kbits/s speed=0.00865x elapsed=0:00:30.82    \nframe=   10 fps=0.3 q=41.2 size=       0KiB time=00:00:00.26 bitrate=   1.3kbits/s speed=0.00849x elapsed=0:00:31.40    \nframe=   10 fps=0.3 q=41.2 size=       0KiB time=00:00:00.26 bitrate=   1.3kbits/s speed=0.00834x elapsed=0:00:31.99    \nframe=   10 fps=0.3 q=41.2 size=       0KiB time=00:00:00.26 bitrate=   1.3kbits/s speed=0.00817x elapsed=0:00:32.65    \nframe=   10 fps=0.3 q=41.2 size=       0KiB time=00:00:00.26 bitrate=   1.3kbits/s speed=0.00802x elapsed=0:00:33.25    \nframe=   10 fps=0.3 q=41.2 size=       0KiB time=00:00:00.26 bitrate=   1.3kbits/s speed=0.00788x elapsed=0:00:33.86    \nframe=   10 fps=0.3 q=41.2 size=       0KiB time=00:00:00.26 bitrate=   1.3kbits/s speed=0.00774x elapsed=0:00:34.46    \nframe=   10 fps=0.3 q=41.2 size=       0KiB time=00:00:00.26 bitrate=   1.3kbits/s speed=0.0076x elapsed=0:00:35.10    \nframe=   12 fps=0.3 q=38.8 size=       0KiB time=00:00:00.33 bitrate=   1.1kbits/s speed=0.00935x elapsed=0:00:35.65    \nframe=   12 fps=0.3 q=38.8 size=       0KiB time=00:00:00.33 bitrate=   1.1kbits/s speed=0.0092x elapsed=0:00:36.22    \nframe=   12 fps=0.3 q=38.8 size=       0KiB time=00:00:00.33 bitrate=   1.1kbits/s speed=0.00907x elapsed=0:00:36.76    \nframe=   12 fps=0.3 q=38.8 size=       0KiB time=00:00:00.33 bitrate=   1.1kbits/s speed=0.00893x elapsed=0:00:37.30    \nframe=   12 fps=0.3 q=38.8 size=       0KiB time=00:00:00.33 bitrate=   1.1kbits/s speed=0.0088x elapsed=0:00:37.89    \nframe=   12 fps=0.3 q=38.8 size=       0KiB time=00:00:00.33 bitrate=   1.1kbits/s speed=0.00868x elapsed=0:00:38.41    \nframe=   12 fps=0.3 q=38.8 size=       0KiB time=00:00:00.33 bitrate=   1.1kbits/s speed=0.00856x elapsed=0:00:38.95    \nframe=   12 fps=0.3 q=38.8 size=       0KiB time=00:00:00.33 bitrate=   1.1kbits/s speed=0.00843x elapsed=0:00:39.53    \nframe=   12 fps=0.3 q=38.8 size=       0KiB time=00:00:00.33 bitrate=   1.1kbits/s speed=0.0083x elapsed=0:00:40.14    \nframe=   12 fps=0.3 q=38.8 size=       0KiB time=00:00:00.33 bitrate=   1.1kbits/s speed=0.00818x elapsed=0:00:40.76    \nframe=   12 fps=0.3 q=38.8 size=       0KiB time=00:00:00.33 bitrate=   1.1kbits/s speed=0.00807x elapsed=0:00:41.28    \nframe=   13 fps=0.3 q=40.3 size=       0KiB time=00:00:00.36 bitrate=   1.0kbits/s speed=0.00877x elapsed=0:00:41.80    \nframe=   13 fps=0.3 q=40.3 size=       0KiB time=00:00:00.36 bitrate=   1.0kbits/s speed=0.00865x elapsed=0:00:42.39    \nframe=   13 fps=0.3 q=40.3 size=       0KiB time=00:00:00.36 bitrate=   1.0kbits/s speed=0.00853x elapsed=0:00:42.96    \nframe=   13 fps=0.3 q=40.3 size=       0KiB time=00:00:00.36 bitrate=   1.0kbits/s speed=0.00842x elapsed=0:00:43.56    \nframe=   13 fps=0.3 q=40.3 size=       0KiB time=00:00:00.36 bitrate=   1.0kbits/s speed=0.00831x elapsed=0:00:44.09    \nframe=   13 fps=0.3 q=40.3 size=       0KiB time=00:00:00.36 bitrate=   1.0kbits/s speed=0.00821x elapsed=0:00:44.66    \nframe=   13 fps=0.3 q=40.3 size=       0KiB time=00:00:00.36 bitrate=   1.0kbits/s speed=0.0081x elapsed=0:00:45.23    \nframe=   13 fps=0.3 q=40.3 size=       0KiB time=00:00:00.36 bitrate=   1.0kbits/s speed=0.008x elapsed=0:00:45.81    \nframe=   15 fps=0.3 q=42.1 size=       0KiB time=00:00:00.43 bitrate=   0.8kbits/s speed=0.00935x elapsed=0:00:46.35    \nframe=   15 fps=0.3 q=42.1 size=       0KiB time=00:00:00.43 bitrate=   0.8kbits/s speed=0.00924x elapsed=0:00:46.90    \nframe=   15 fps=0.3 q=42.1 size=       0KiB time=00:00:00.43 bitrate=   0.8kbits/s speed=0.00913x elapsed=0:00:47.47    \nframe=   15 fps=0.3 q=42.1 size=       0KiB time=00:00:00.43 bitrate=   0.8kbits/s speed=0.00902x elapsed=0:00:48.04    \nframe=   15 fps=0.3 q=42.1 size=       0KiB time=00:00:00.43 bitrate=   0.8kbits/s speed=0.00891x elapsed=0:00:48.64    \nframe=   15 fps=0.3 q=42.1 size=       0KiB time=00:00:00.43 bitrate=   0.8kbits/s speed=0.00881x elapsed=0:00:49.18    \nframe=   16 fps=0.3 q=39.6 size=       0KiB time=00:00:00.46 bitrate=   0.8kbits/s speed=0.00939x elapsed=0:00:49.71    \nframe=   16 fps=0.3 q=39.6 size=       0KiB time=00:00:00.46 bitrate=   0.8kbits/s speed=0.00929x elapsed=0:00:50.25    \nframe=   16 fps=0.3 q=39.6 size=       0KiB time=00:00:00.46 bitrate=   0.8kbits/s speed=0.00918x elapsed=0:00:50.85    \nframe=   16 fps=0.3 q=39.6 size=       0KiB time=00:00:00.46 bitrate=   0.8kbits/s speed=0.00907x elapsed=0:00:51.43    \nframe=   16 fps=0.3 q=39.6 size=       0KiB time=00:00:00.46 bitrate=   0.8kbits/s speed=0.00898x elapsed=0:00:51.96    \nframe=   17 fps=0.3 q=42.5 size=       0KiB time=00:00:00.50 bitrate=   0.7kbits/s speed=0.00952x elapsed=0:00:52.49    \nframe=   17 fps=0.3 q=42.5 size=       0KiB time=00:00:00.50 bitrate=   0.7kbits/s speed=0.00942x elapsed=0:00:53.08    \nframe=   17 fps=0.3 q=42.5 size=       0KiB time=00:00:00.50 bitrate=   0.7kbits/s speed=0.0093x elapsed=0:00:53.73    \nframe=   17 fps=0.3 q=42.5 size=       0KiB time=00:00:00.50 bitrate=   0.7kbits/s speed=0.00918x elapsed=0:00:54.43    \nframe=   17 fps=0.3 q=42.5 size=       0KiB time=00:00:00.50 bitrate=   0.7kbits/s speed=0.00907x elapsed=0:00:55.10    \nframe=   17 fps=0.3 q=42.5 size=       0KiB time=00:00:00.50 bitrate=   0.7kbits/s speed=0.00897x elapsed=0:00:55.73    \nframe=   17 fps=0.3 q=42.5 size=       0KiB time=00:00:00.50 bitrate=   0.7kbits/s speed=0.00888x elapsed=0:00:56.32    \nframe=   17 fps=0.3 q=42.5 size=       0KiB time=00:00:00.50 bitrate=   0.7kbits/s speed=0.00878x elapsed=0:00:56.92    \nframe=   18 fps=0.3 q=39.1 size=       0KiB time=00:00:00.53 bitrate=   0.7kbits/s speed=0.00928x elapsed=0:00:57.47    \nframe=   18 fps=0.3 q=39.1 size=       0KiB time=00:00:00.53 bitrate=   0.7kbits/s speed=0.00919x elapsed=0:00:58.04    \nframe=   18 fps=0.3 q=39.1 size=       0KiB time=00:00:00.53 bitrate=   0.7kbits/s speed=0.0091x elapsed=0:00:58.63    \nframe=   18 fps=0.3 q=39.1 size=       0KiB time=00:00:00.53 bitrate=   0.7kbits/s speed=0.009x elapsed=0:00:59.23    \nframe=   18 fps=0.3 q=39.1 size=       0KiB time=00:00:00.53 bitrate=   0.7kbits/s speed=0.00891x elapsed=0:00:59.82    \nframe=   18 fps=0.3 q=39.1 size=       0KiB time=00:00:00.53 bitrate=   0.7kbits/s speed=0.00882x elapsed=0:01:00.50    \nframe=   18 fps=0.3 q=39.1 size=       0KiB time=00:00:00.53 bitrate=   0.7kbits/s speed=0.00873x elapsed=0:01:01.07    \nframe=   18 fps=0.3 q=39.1 size=       0KiB time=00:00:00.53 bitrate=   0.7kbits/s speed=0.00865x elapsed=0:01:01.65    \nframe=   19 fps=0.3 q=39.0 size=       0KiB time=00:00:00.56 bitrate=   0.6kbits/s speed=0.00911x elapsed=0:01:02.17    \nframe=   19 fps=0.3 q=39.0 size=       0KiB time=00:00:00.56 bitrate=   0.6kbits/s speed=0.00904x elapsed=0:01:02.70    \nframe=   19 fps=0.3 q=39.0 size=       0KiB time=00:00:00.56 bitrate=   0.6kbits/s speed=0.00896x elapsed=0:01:03.24    \nframe=   19 fps=0.3 q=39.0 size=       0KiB time=00:00:00.56 bitrate=   0.6kbits/s speed=0.00889x elapsed=0:01:03.76    \nframe=   19 fps=0.3 q=39.0 size=       0KiB time=00:00:00.56 bitrate=   0.6kbits/s speed=0.0088x elapsed=0:01:04.38    \nframe=   19 fps=0.3 q=39.0 size=       0KiB time=00:00:00.56 bitrate=   0.6kbits/s speed=0.00873x elapsed=0:01:04.94    \nframe=   19 fps=0.3 q=39.0 size=       0KiB time=00:00:00.56 bitrate=   0.6kbits/s speed=0.00864x elapsed=0:01:05.55    \nframe=   19 fps=0.3 q=39.0 size=       0KiB time=00:00:00.56 bitrate=   0.6kbits/s speed=0.00856x elapsed=0:01:06.17    \nframe=   19 fps=0.3 q=39.0 size=       0KiB time=00:00:00.56 bitrate=   0.6kbits/s speed=0.00848x elapsed=0:01:06.80    \nframe=   20 fps=0.3 q=41.3 size=       0KiB time=00:00:00.60 bitrate=   0.6kbits/s speed=0.0089x elapsed=0:01:07.39    \nframe=   20 fps=0.3 q=41.3 size=       0KiB time=00:00:00.60 bitrate=   0.6kbits/s speed=0.00883x elapsed=0:01:07.97    \nframe=   20 fps=0.3 q=41.3 size=       0KiB time=00:00:00.60 bitrate=   0.6kbits/s speed=0.00876x elapsed=0:01:08.53    \nframe=   20 fps=0.3 q=41.3 size=       0KiB time=00:00:00.60 bitrate=   0.6kbits/s speed=0.00869x elapsed=0:01:09.06    \nframe=   20 fps=0.3 q=41.3 size=       0KiB time=00:00:00.60 bitrate=   0.6kbits/s speed=0.00862x elapsed=0:01:09.62    \nframe=   23 fps=0.3 q=42.7 size=       0KiB time=00:00:00.70 bitrate=   0.5kbits/s speed=0.00998x elapsed=0:01:10.16    \nframe=   23 fps=0.3 q=42.7 size=       0KiB time=00:00:00.70 bitrate=   0.5kbits/s speed=0.0099x elapsed=0:01:10.73    \nframe=   23 fps=0.3 q=42.7 size=       0KiB time=00:00:00.70 bitrate=   0.5kbits/s speed=0.00982x elapsed=0:01:11.26    \nframe=   23 fps=0.3 q=42.7 size=       0KiB time=00:00:00.70 bitrate=   0.5kbits/s speed=0.00975x elapsed=0:01:11.79    \nframe=   23 fps=0.3 q=42.7 size=       0KiB time=00:00:00.70 bitrate=   0.5kbits/s speed=0.00964x elapsed=0:01:12.64    \nframe=   23 fps=0.3 q=42.7 size=       0KiB time=00:00:00.70 bitrate=   0.5kbits/s speed=0.00953x elapsed=0:01:13.46    \nframe=   23 fps=0.3 q=42.7 size=       0KiB time=00:00:00.70 bitrate=   0.5kbits/s speed=0.00942x elapsed=0:01:14.30    \nframe=   23 fps=0.3 q=42.7 size=       0KiB time=00:00:00.70 bitrate=   0.5kbits/s speed=0.00933x elapsed=0:01:15.01    \nframe=   23 fps=0.3 q=42.7 size=       0KiB time=00:00:00.70 bitrate=   0.5kbits/s speed=0.00925x elapsed=0:01:15.69    \nframe=   23 fps=0.3 q=42.7 size=       0KiB time=00:00:00.70 bitrate=   0.5kbits/s speed=0.00915x elapsed=0:01:16.52    \nframe=   23 fps=0.3 q=42.7 size=       0KiB time=00:00:00.70 bitrate=   0.5kbits/s speed=0.00907x elapsed=0:01:17.19    \nframe=   23 fps=0.3 q=42.7 size=       0KiB time=00:00:00.70 bitrate=   0.5kbits/s speed=0.009x elapsed=0:01:17.77    \nframe=   23 fps=0.3 q=42.7 size=       0KiB time=00:00:00.70 bitrate=   0.5kbits/s speed=0.00892x elapsed=0:01:18.48    \nframe=   23 fps=0.3 q=42.7 size=       0KiB time=00:00:00.70 bitrate=   0.5kbits/s speed=0.00885x elapsed=0:01:19.06    \nframe=   23 fps=0.3 q=42.7 size=       0KiB time=00:00:00.70 bitrate=   0.5kbits/s speed=0.00878x elapsed=0:01:19.71    \nframe=   23 fps=0.3 q=42.7 size=       0KiB time=00:00:00.70 bitrate=   0.5kbits/s speed=0.00871x elapsed=0:01:20.32    \nframe=   23 fps=0.3 q=42.7 size=       0KiB time=00:00:00.70 bitrate=   0.5kbits/s speed=0.00865x elapsed=0:01:20.91    \nframe=   23 fps=0.3 q=42.7 size=       0KiB time=00:00:00.70 bitrate=   0.5kbits/s speed=0.00859x elapsed=0:01:21.47    \nframe=   23 fps=0.3 q=42.7 size=       0KiB time=00:00:00.70 bitrate=   0.5kbits/s speed=0.00852x elapsed=0:01:22.12    \nframe=   23 fps=0.3 q=42.7 size=       0KiB time=00:00:00.70 bitrate=   0.5kbits/s speed=0.00846x elapsed=0:01:22.73    \nframe=   23 fps=0.3 q=42.7 size=       0KiB time=00:00:00.70 bitrate=   0.5kbits/s speed=0.0084x elapsed=0:01:23.28    \nframe=   23 fps=0.3 q=42.7 size=       0KiB time=00:00:00.70 bitrate=   0.5kbits/s speed=0.00834x elapsed=0:01:23.94    \nframe=   23 fps=0.3 q=42.7 size=       0KiB time=00:00:00.70 bitrate=   0.5kbits/s speed=0.00828x elapsed=0:01:24.54    \nframe=   24 fps=0.3 q=39.1 size=     256KiB time=00:00:00.70 bitrate=2996.4kbits/s speed=0.00821x elapsed=0:01:25.22    \nframe=   24 fps=0.3 q=39.1 size=     256KiB time=00:00:00.73 bitrate=2860.2kbits/s speed=0.00854x elapsed=0:01:25.85    \nframe=   24 fps=0.3 q=39.1 size=     256KiB time=00:00:00.73 bitrate=2860.2kbits/s speed=0.00849x elapsed=0:01:26.40    \nframe=   25 fps=0.3 q=41.9 size=     256KiB time=00:00:00.76 bitrate=2735.9kbits/s speed=0.00881x elapsed=0:01:26.98    \nframe=   25 fps=0.3 q=41.9 size=     256KiB time=00:00:00.76 bitrate=2735.9kbits/s speed=0.00875x elapsed=0:01:27.61    \nframe=   25 fps=0.3 q=41.9 size=     256KiB time=00:00:00.76 bitrate=2735.9kbits/s speed=0.0087x elapsed=0:01:28.17    \nframe=   26 fps=0.3 q=42.9 size=     256KiB time=00:00:00.76 bitrate=2735.9kbits/s speed=0.00864x elapsed=0:01:28.71    \nframe=   26 fps=0.3 q=42.9 size=     256KiB time=00:00:00.80 bitrate=2621.9kbits/s speed=0.00895x elapsed=0:01:29.34    \nframe=   26 fps=0.3 q=42.9 size=     256KiB time=00:00:00.80 bitrate=2621.9kbits/s speed=0.0089x elapsed=0:01:29.90    \nframe=   26 fps=0.3 q=42.9 size=     256KiB time=00:00:00.80 bitrate=2621.9kbits/s speed=0.00884x elapsed=0:01:30.45    \nframe=   26 fps=0.3 q=42.9 size=     256KiB time=00:00:00.80 bitrate=2621.9kbits/s speed=0.00878x elapsed=0:01:31.06    \nframe=   26 fps=0.3 q=42.9 size=     256KiB time=00:00:00.80 bitrate=2621.9kbits/s speed=0.00872x elapsed=0:01:31.73    \nframe=   27 fps=0.3 q=43.6 size=     256KiB time=00:00:00.83 bitrate=2517.0kbits/s speed=0.00902x elapsed=0:01:32.33    \nframe=   27 fps=0.3 q=43.6 size=     256KiB time=00:00:00.83 bitrate=2517.0kbits/s speed=0.00897x elapsed=0:01:32.86    \nframe=   27 fps=0.3 q=43.6 size=     256KiB time=00:00:00.83 bitrate=2517.0kbits/s speed=0.00892x elapsed=0:01:33.39    \nframe=   27 fps=0.3 q=43.6 size=     256KiB time=00:00:00.83 bitrate=2517.0kbits/s speed=0.00887x elapsed=0:01:33.99    \nframe=   27 fps=0.3 q=43.6 size=     256KiB time=00:00:00.83 bitrate=2517.0kbits/s speed=0.00881x elapsed=0:01:34.54    \nframe=   28 fps=0.3 q=38.9 size=     256KiB time=00:00:00.86 bitrate=2420.2kbits/s speed=0.00911x elapsed=0:01:35.15    \nframe=   28 fps=0.3 q=38.9 size=     256KiB time=00:00:00.86 bitrate=2420.2kbits/s speed=0.00905x elapsed=0:01:35.81    \nframe=   28 fps=0.3 q=38.9 size=     256KiB time=00:00:00.86 bitrate=2420.2kbits/s speed=0.00899x elapsed=0:01:36.38    \nframe=   28 fps=0.3 q=38.9 size=     256KiB time=00:00:00.86 bitrate=2420.2kbits/s speed=0.00894x elapsed=0:01:36.97    \nframe=   29 fps=0.3 q=41.5 size=     256KiB time=00:00:00.90 bitrate=2330.6kbits/s speed=0.00923x elapsed=0:01:37.55    \nframe=   30 fps=0.3 q=42.9 size=     256KiB time=00:00:00.93 bitrate=2247.3kbits/s speed=0.00952x elapsed=0:01:38.08    \nframe=   30 fps=0.3 q=42.9 size=     256KiB time=00:00:00.93 bitrate=2247.3kbits/s speed=0.00946x elapsed=0:01:38.62    \nframe=   30 fps=0.3 q=42.9 size=     256KiB time=00:00:00.93 bitrate=2247.3kbits/s speed=0.00941x elapsed=0:01:39.15    \nframe=   30 fps=0.3 q=42.9 size=     256KiB time=00:00:00.93 bitrate=2247.3kbits/s speed=0.00936x elapsed=0:01:39.68    \nframe=   30 fps=0.3 q=42.9 size=     256KiB time=00:00:00.93 bitrate=2247.3kbits/s speed=0.00931x elapsed=0:01:40.21    \nframe=   30 fps=0.3 q=42.9 size=     256KiB time=00:00:00.93 bitrate=2247.3kbits/s speed=0.00926x elapsed=0:01:40.75    \nframe=   30 fps=0.3 q=42.9 size=     256KiB time=00:00:00.93 bitrate=2247.3kbits/s speed=0.00921x elapsed=0:01:41.37    \nframe=   30 fps=0.3 q=42.9 size=     256KiB time=00:00:00.93 bitrate=2247.3kbits/s speed=0.00916x elapsed=0:01:41.90    \nframe=   30 fps=0.3 q=42.9 size=     256KiB time=00:00:00.93 bitrate=2247.3kbits/s speed=0.00911x elapsed=0:01:42.49    \nframe=   30 fps=0.3 q=42.9 size=     256KiB time=00:00:00.93 bitrate=2247.3kbits/s speed=0.00906x elapsed=0:01:43.02    \nframe=   30 fps=0.3 q=42.9 size=     256KiB time=00:00:00.93 bitrate=2247.3kbits/s speed=0.00901x elapsed=0:01:43.55    \nframe=   30 fps=0.3 q=42.9 size=     256KiB time=00:00:00.93 bitrate=2247.3kbits/s speed=0.00897x elapsed=0:01:44.10    \nframe=   30 fps=0.3 q=42.9 size=     256KiB time=00:00:00.93 bitrate=2247.3kbits/s speed=0.00892x elapsed=0:01:44.62    \nframe=   30 fps=0.3 q=42.9 size=     256KiB time=00:00:00.93 bitrate=2247.3kbits/s speed=0.00887x elapsed=0:01:45.16    \nframe=   31 fps=0.3 q=38.9 size=     256KiB time=00:00:00.96 bitrate=2169.8kbits/s speed=0.00914x elapsed=0:01:45.71    \nframe=   31 fps=0.3 q=38.9 size=     256KiB time=00:00:00.96 bitrate=2169.8kbits/s speed=0.0091x elapsed=0:01:46.23    \nframe=   31 fps=0.3 q=38.9 size=     256KiB time=00:00:00.96 bitrate=2169.8kbits/s speed=0.00905x elapsed=0:01:46.84    \nframe=   31 fps=0.3 q=38.9 size=     256KiB time=00:00:00.96 bitrate=2169.8kbits/s speed=0.00899x elapsed=0:01:47.53    \nframe=   31 fps=0.3 q=38.9 size=     256KiB time=00:00:00.96 bitrate=2169.8kbits/s speed=0.00893x elapsed=0:01:48.22    \nframe=   31 fps=0.3 q=38.9 size=     256KiB time=00:00:00.96 bitrate=2169.8kbits/s speed=0.00889x elapsed=0:01:48.79    \nframe=   31 fps=0.3 q=38.9 size=     256KiB time=00:00:00.96 bitrate=2169.8kbits/s speed=0.00884x elapsed=0:01:49.35    \nframe=   31 fps=0.3 q=38.9 size=     256KiB time=00:00:00.96 bitrate=2169.8kbits/s speed=0.0088x elapsed=0:01:49.89    \nframe=   31 fps=0.3 q=38.9 size=     256KiB time=00:00:00.96 bitrate=2169.8kbits/s speed=0.00874x elapsed=0:01:50.54    \nframe=   31 fps=0.3 q=38.9 size=     256KiB time=00:00:00.96 bitrate=2169.8kbits/s speed=0.0087x elapsed=0:01:51.12    \nframe=   32 fps=0.3 q=41.0 size=     256KiB time=00:00:01.00 bitrate=2097.5kbits/s speed=0.00896x elapsed=0:01:51.65    \nframe=   32 fps=0.3 q=41.0 size=     256KiB time=00:00:01.00 bitrate=2097.5kbits/s speed=0.00891x elapsed=0:01:52.27    \nframe=   32 fps=0.3 q=41.0 size=     256KiB time=00:00:01.00 bitrate=2097.5kbits/s speed=0.00886x elapsed=0:01:52.84    \nframe=   32 fps=0.3 q=41.0 size=     256KiB time=00:00:01.00 bitrate=2097.5kbits/s speed=0.00882x elapsed=0:01:53.41    \nframe=   32 fps=0.3 q=41.0 size=     256KiB time=00:00:01.00 bitrate=2097.5kbits/s speed=0.00877x elapsed=0:01:54.05    \nframe=   32 fps=0.3 q=41.0 size=     256KiB time=00:00:01.00 bitrate=2097.5kbits/s speed=0.00872x elapsed=0:01:54.62    \nframe=   32 fps=0.3 q=41.0 size=     256KiB time=00:00:01.00 bitrate=2097.5kbits/s speed=0.00868x elapsed=0:01:55.16    \nframe=   32 fps=0.3 q=41.0 size=     256KiB time=00:00:01.00 bitrate=2097.5kbits/s speed=0.00863x elapsed=0:01:55.82    \nframe=   33 fps=0.3 q=43.1 size=     256KiB time=00:00:01.03 bitrate=2029.8kbits/s speed=0.00888x elapsed=0:01:56.41    \nframe=   33 fps=0.3 q=43.1 size=     256KiB time=00:00:01.03 bitrate=2029.8kbits/s speed=0.00884x elapsed=0:01:56.95    \nframe=   33 fps=0.3 q=43.1 size=     256KiB time=00:00:01.03 bitrate=2029.8kbits/s speed=0.00878x elapsed=0:01:57.63    \nframe=   34 fps=0.3 q=43.1 size=     256KiB time=00:00:01.06 bitrate=1966.4kbits/s speed=0.00903x elapsed=0:01:58.16    \nframe=   34 fps=0.3 q=43.1 size=     256KiB time=00:00:01.06 bitrate=1966.4kbits/s speed=0.00899x elapsed=0:01:58.68    \nframe=   34 fps=0.3 q=43.1 size=     256KiB time=00:00:01.06 bitrate=1966.4kbits/s speed=0.00895x elapsed=0:01:59.20    \nframe=   34 fps=0.3 q=43.1 size=     256KiB time=00:00:01.06 bitrate=1966.4kbits/s speed=0.00891x elapsed=0:01:59.72    \nframe=   35 fps=0.3 q=42.8 size=     256KiB time=00:00:01.10 bitrate=1906.8kbits/s speed=0.00915x elapsed=0:02:00.22    \nframe=   35 fps=0.3 q=42.8 size=     256KiB time=00:00:01.10 bitrate=1906.8kbits/s speed=0.00911x elapsed=0:02:00.74    \nframe=   35 fps=0.3 q=42.8 size=     256KiB time=00:00:01.10 bitrate=1906.8kbits/s speed=0.00907x elapsed=0:02:01.28    \nframe=   35 fps=0.3 q=42.8 size=     256KiB time=00:00:01.10 bitrate=1906.8kbits/s speed=0.00903x elapsed=0:02:01.81    \nframe=   35 fps=0.3 q=42.8 size=     256KiB time=00:00:01.10 bitrate=1906.8kbits/s speed=0.00899x elapsed=0:02:02.34    \nframe=   35 fps=0.3 q=42.8 size=     256KiB time=00:00:01.10 bitrate=1906.8kbits/s speed=0.00895x elapsed=0:02:02.85    \nframe=   35 fps=0.3 q=42.8 size=     256KiB time=00:00:01.10 bitrate=1906.8kbits/s speed=0.00892x elapsed=0:02:03.37    \nframe=   35 fps=0.3 q=42.8 size=     256KiB time=00:00:01.10 bitrate=1906.8kbits/s speed=0.00888x elapsed=0:02:03.89    \nframe=   36 fps=0.3 q=39.4 size=     256KiB time=00:00:01.13 bitrate=1850.7kbits/s speed=0.00911x elapsed=0:02:04.45    \nframe=   36 fps=0.3 q=39.4 size=     256KiB time=00:00:01.13 bitrate=1850.7kbits/s speed=0.00907x elapsed=0:02:04.97    \nframe=   36 fps=0.3 q=39.4 size=     256KiB time=00:00:01.13 bitrate=1850.7kbits/s speed=0.00903x elapsed=0:02:05.50    \nframe=   36 fps=0.3 q=39.4 size=     256KiB time=00:00:01.13 bitrate=1850.7kbits/s speed=0.00899x elapsed=0:02:06.02    \nframe=   36 fps=0.3 q=39.4 size=     256KiB time=00:00:01.13 bitrate=1850.7kbits/s speed=0.00896x elapsed=0:02:06.54    \nframe=   36 fps=0.3 q=39.4 size=     256KiB time=00:00:01.13 bitrate=1850.7kbits/s speed=0.00892x elapsed=0:02:07.05    \nframe=   37 fps=0.3 q=41.1 size=     256KiB time=00:00:01.16 bitrate=1797.9kbits/s speed=0.00914x elapsed=0:02:07.58    \nframe=   37 fps=0.3 q=41.1 size=     256KiB time=00:00:01.16 bitrate=1797.9kbits/s speed=0.00911x elapsed=0:02:08.10    \nframe=   37 fps=0.3 q=41.1 size=     256KiB time=00:00:01.16 bitrate=1797.9kbits/s speed=0.00907x elapsed=0:02:08.62    \nframe=   37 fps=0.3 q=41.1 size=     256KiB time=00:00:01.16 bitrate=1797.9kbits/s speed=0.00903x elapsed=0:02:09.14    \nframe=   37 fps=0.3 q=41.1 size=     256KiB time=00:00:01.16 bitrate=1797.9kbits/s speed=0.009x elapsed=0:02:09.66    \nframe=   37 fps=0.3 q=41.1 size=     256KiB time=00:00:01.16 bitrate=1797.9kbits/s speed=0.00896x elapsed=0:02:10.17    \nframe=   39 fps=0.3 q=42.9 size=     256KiB time=00:00:01.23 bitrate=1700.7kbits/s speed=0.00944x elapsed=0:02:10.69    \nframe=   39 fps=0.3 q=42.9 size=     256KiB time=00:00:01.23 bitrate=1700.7kbits/s speed=0.0094x elapsed=0:02:11.21    \nframe=   39 fps=0.3 q=42.9 size=     256KiB time=00:00:01.23 bitrate=1700.7kbits/s speed=0.00936x elapsed=0:02:11.74    \nframe=   39 fps=0.3 q=42.9 size=     256KiB time=00:00:01.23 bitrate=1700.7kbits/s speed=0.00932x elapsed=0:02:12.26    \nframe=   39 fps=0.3 q=42.9 size=     256KiB time=00:00:01.23 bitrate=1700.7kbits/s speed=0.00929x elapsed=0:02:12.77    \nframe=   39 fps=0.3 q=42.9 size=     256KiB time=00:00:01.23 bitrate=1700.7kbits/s speed=0.00925x elapsed=0:02:13.28    \nframe=   39 fps=0.3 q=42.9 size=     256KiB time=00:00:01.23 bitrate=1700.7kbits/s speed=0.00922x elapsed=0:02:13.80    \nframe=   39 fps=0.3 q=42.9 size=     256KiB time=00:00:01.23 bitrate=1700.7kbits/s speed=0.00918x elapsed=0:02:14.31    \nframe=   39 fps=0.3 q=42.9 size=     256KiB time=00:00:01.23 bitrate=1700.7kbits/s speed=0.00915x elapsed=0:02:14.83    \nframe=   39 fps=0.3 q=42.9 size=     256KiB time=00:00:01.23 bitrate=1700.7kbits/s speed=0.00911x elapsed=0:02:15.35    \nframe=   39 fps=0.3 q=42.9 size=     256KiB time=00:00:01.23 bitrate=1700.7kbits/s speed=0.00908x elapsed=0:02:15.87    \nframe=   39 fps=0.3 q=42.9 size=     256KiB time=00:00:01.23 bitrate=1700.7kbits/s speed=0.00904x elapsed=0:02:16.38    \nframe=   39 fps=0.3 q=42.9 size=     256KiB time=00:00:01.23 bitrate=1700.7kbits/s speed=0.00901x elapsed=0:02:16.90    \nframe=   39 fps=0.3 q=42.9 size=     256KiB time=00:00:01.23 bitrate=1700.7kbits/s speed=0.00898x elapsed=0:02:17.41    \nframe=   39 fps=0.3 q=42.9 size=     256KiB time=00:00:01.23 bitrate=1700.7kbits/s speed=0.00894x elapsed=0:02:17.93    \nframe=   39 fps=0.3 q=42.9 size=     256KiB time=00:00:01.23 bitrate=1700.7kbits/s speed=0.00891x elapsed=0:02:18.45    \nframe=   39 fps=0.3 q=42.9 size=     256KiB time=00:00:01.23 bitrate=1700.7kbits/s speed=0.00887x elapsed=0:02:18.98    \nframe=   40 fps=0.3 q=38.8 size=     256KiB time=00:00:01.26 bitrate=1655.9kbits/s speed=0.00908x elapsed=0:02:19.49    \nframe=   40 fps=0.3 q=38.8 size=     256KiB time=00:00:01.26 bitrate=1655.9kbits/s speed=0.00905x elapsed=0:02:20.00    \nframe=   40 fps=0.3 q=38.8 size=     256KiB time=00:00:01.26 bitrate=1655.9kbits/s speed=0.00901x elapsed=0:02:20.52    \nframe=   40 fps=0.3 q=38.8 size=     256KiB time=00:00:01.26 bitrate=1655.9kbits/s speed=0.00898x elapsed=0:02:21.05    \nframe=   40 fps=0.3 q=38.8 size=     256KiB time=00:00:01.26 bitrate=1655.9kbits/s speed=0.00895x elapsed=0:02:21.57    \nframe=   40 fps=0.3 q=38.8 size=     256KiB time=00:00:01.26 bitrate=1655.9kbits/s speed=0.00891x elapsed=0:02:22.11    \nframe=   40 fps=0.3 q=38.8 size=     256KiB time=00:00:01.26 bitrate=1655.9kbits/s speed=0.00888x elapsed=0:02:22.65    \nframe=   40 fps=0.3 q=38.8 size=     256KiB time=00:00:01.26 bitrate=1655.9kbits/s speed=0.00884x elapsed=0:02:23.25    \nframe=   40 fps=0.3 q=38.8 size=     256KiB time=00:00:01.26 bitrate=1655.9kbits/s speed=0.00881x elapsed=0:02:23.78    \nframe=   40 fps=0.3 q=38.8 size=     256KiB time=00:00:01.26 bitrate=1655.9kbits/s speed=0.00878x elapsed=0:02:24.34    \nframe=   41 fps=0.3 q=43.0 size=     256KiB time=00:00:01.30 bitrate=1613.5kbits/s speed=0.00897x elapsed=0:02:24.89    \nframe=   41 fps=0.3 q=43.0 size=     256KiB time=00:00:01.30 bitrate=1613.5kbits/s speed=0.00894x elapsed=0:02:25.44    \nframe=   41 fps=0.3 q=43.0 size=     256KiB time=00:00:01.30 bitrate=1613.5kbits/s speed=0.00891x elapsed=0:02:25.96    \nframe=   41 fps=0.3 q=43.0 size=     256KiB time=00:00:01.30 bitrate=1613.5kbits/s speed=0.00887x elapsed=0:02:26.48    \nframe=   41 fps=0.3 q=43.0 size=     256KiB time=00:00:01.30 bitrate=1613.5kbits/s speed=0.00884x elapsed=0:02:27.00    \nframe=   42 fps=0.3 q=38.8 size=     256KiB time=00:00:01.33 bitrate=1573.1kbits/s speed=0.00904x elapsed=0:02:27.54    \nframe=   42 fps=0.3 q=38.8 size=     256KiB time=00:00:01.33 bitrate=1573.1kbits/s speed=0.00901x elapsed=0:02:28.06    \nframe=   42 fps=0.3 q=38.8 size=     256KiB time=00:00:01.33 bitrate=1573.1kbits/s speed=0.00897x elapsed=0:02:28.56    \nframe=   42 fps=0.3 q=38.8 size=     256KiB time=00:00:01.33 bitrate=1573.1kbits/s speed=0.00894x elapsed=0:02:29.08    \nframe=   43 fps=0.3 q=41.9 size=     256KiB time=00:00:01.36 bitrate=1534.8kbits/s speed=0.00913x elapsed=0:02:29.61    \nframe=   43 fps=0.3 q=41.9 size=     256KiB time=00:00:01.36 bitrate=1534.8kbits/s speed=0.0091x elapsed=0:02:30.11    \nframe=   43 fps=0.3 q=41.9 size=     256KiB time=00:00:01.36 bitrate=1534.8kbits/s speed=0.00907x elapsed=0:02:30.63    \nframe=   43 fps=0.3 q=41.9 size=     256KiB time=00:00:01.36 bitrate=1534.8kbits/s speed=0.00904x elapsed=0:02:31.15    \nframe=   44 fps=0.3 q=43.3 size=     256KiB time=00:00:01.40 bitrate=1498.2kbits/s speed=0.00923x elapsed=0:02:31.67    \nframe=   44 fps=0.3 q=43.3 size=     256KiB time=00:00:01.40 bitrate=1498.2kbits/s speed=0.0092x elapsed=0:02:32.19    \nframe=   44 fps=0.3 q=43.3 size=     256KiB time=00:00:01.40 bitrate=1498.2kbits/s speed=0.00917x elapsed=0:02:32.71    \nframe=   45 fps=0.3 q=43.2 size=     256KiB time=00:00:01.43 bitrate=1463.4kbits/s speed=0.00935x elapsed=0:02:33.22    \nframe=   45 fps=0.3 q=43.2 size=     256KiB time=00:00:01.43 bitrate=1463.4kbits/s speed=0.00932x elapsed=0:02:33.73    \nframe=   45 fps=0.3 q=43.2 size=     256KiB time=00:00:01.43 bitrate=1463.4kbits/s speed=0.00929x elapsed=0:02:34.26    \nframe=   46 fps=0.3 q=43.3 size=     256KiB time=00:00:01.46 bitrate=1430.1kbits/s speed=0.00947x elapsed=0:02:34.82    \nframe=   47 fps=0.3 q=38.5 size=     256KiB time=00:00:01.50 bitrate=1398.3kbits/s speed=0.00966x elapsed=0:02:35.33    \nframe=   47 fps=0.3 q=38.5 size=     256KiB time=00:00:01.50 bitrate=1398.3kbits/s speed=0.00962x elapsed=0:02:35.85    \nframe=   47 fps=0.3 q=38.5 size=     256KiB time=00:00:01.50 bitrate=1398.3kbits/s speed=0.00959x elapsed=0:02:36.37    \nframe=   47 fps=0.3 q=38.5 size=     256KiB time=00:00:01.50 bitrate=1398.3kbits/s speed=0.00956x elapsed=0:02:36.88    \nframe=   47 fps=0.3 q=38.5 size=     256KiB time=00:00:01.50 bitrate=1398.3kbits/s speed=0.00953x elapsed=0:02:37.41    \nframe=   47 fps=0.3 q=38.5 size=     256KiB time=00:00:01.50 bitrate=1398.3kbits/s speed=0.00949x elapsed=0:02:38.01    \nframe=   47 fps=0.3 q=38.5 size=     256KiB time=00:00:01.50 bitrate=1398.3kbits/s speed=0.00946x elapsed=0:02:38.56    \nframe=   47 fps=0.3 q=38.5 size=     256KiB time=00:00:01.50 bitrate=1398.3kbits/s speed=0.00943x elapsed=0:02:39.11    \nframe=   47 fps=0.3 q=38.5 size=     256KiB time=00:00:01.50 bitrate=1398.3kbits/s speed=0.0094x elapsed=0:02:39.63    \nframe=   47 fps=0.3 q=38.5 size=     256KiB time=00:00:01.50 bitrate=1398.3kbits/s speed=0.00937x elapsed=0:02:40.16    \nframe=   47 fps=0.3 q=38.5 size=     256KiB time=00:00:01.50 bitrate=1398.3kbits/s speed=0.00933x elapsed=0:02:40.68    \nframe=   48 fps=0.3 q=41.1 size=     256KiB time=00:00:01.53 bitrate=1367.9kbits/s speed=0.00951x elapsed=0:02:41.21    \nframe=   48 fps=0.3 q=41.1 size=     256KiB time=00:00:01.53 bitrate=1367.9kbits/s speed=0.00948x elapsed=0:02:41.73    \nframe=   48 fps=0.3 q=41.1 size=     256KiB time=00:00:01.53 bitrate=1367.9kbits/s speed=0.00945x elapsed=0:02:42.25    \nframe=   48 fps=0.3 q=41.1 size=     256KiB time=00:00:01.53 bitrate=1367.9kbits/s speed=0.00942x elapsed=0:02:42.77    \nframe=   48 fps=0.3 q=41.1 size=     256KiB time=00:00:01.53 bitrate=1367.9kbits/s speed=0.00939x elapsed=0:02:43.32    \nframe=   48 fps=0.3 q=41.1 size=     256KiB time=00:00:01.53 bitrate=1367.9kbits/s speed=0.00936x elapsed=0:02:43.85    \nframe=   48 fps=0.3 q=41.1 size=     256KiB time=00:00:01.53 bitrate=1367.9kbits/s speed=0.00933x elapsed=0:02:44.37    \nframe=   48 fps=0.3 q=41.1 size=     256KiB time=00:00:01.53 bitrate=1367.9kbits/s speed=0.0093x elapsed=0:02:44.88    \nframe=   48 fps=0.3 q=41.1 size=     256KiB time=00:00:01.53 bitrate=1367.9kbits/s speed=0.00927x elapsed=0:02:45.40    \nframe=   49 fps=0.3 q=43.0 size=     256KiB time=00:00:01.56 bitrate=1338.8kbits/s speed=0.00944x elapsed=0:02:45.91    \nframe=   49 fps=0.3 q=43.0 size=     256KiB time=00:00:01.56 bitrate=1338.8kbits/s speed=0.00941x elapsed=0:02:46.43    \nframe=   50 fps=0.3 q=43.1 size=     256KiB time=00:00:01.60 bitrate=1310.9kbits/s speed=0.00958x elapsed=0:02:46.97    \nframe=   51 fps=0.3 q=38.6 size=     256KiB time=00:00:01.63 bitrate=1284.2kbits/s speed=0.00975x elapsed=0:02:47.50    \nframe=   51 fps=0.3 q=38.6 size=     256KiB time=00:00:01.63 bitrate=1284.2kbits/s speed=0.00972x elapsed=0:02:48.01    \nframe=   51 fps=0.3 q=38.6 size=     256KiB time=00:00:01.63 bitrate=1284.2kbits/s speed=0.00969x elapsed=0:02:48.52    \nframe=   51 fps=0.3 q=38.6 size=     256KiB time=00:00:01.63 bitrate=1284.2kbits/s speed=0.00966x elapsed=0:02:49.04    \nframe=   51 fps=0.3 q=38.6 size=     256KiB time=00:00:01.63 bitrate=1284.2kbits/s speed=0.00963x elapsed=0:02:49.55    \nframe=   51 fps=0.3 q=38.6 size=     256KiB time=00:00:01.63 bitrate=1284.2kbits/s speed=0.0096x elapsed=0:02:50.07    \nframe=   51 fps=0.3 q=38.6 size=     256KiB time=00:00:01.63 bitrate=1284.2kbits/s speed=0.00957x elapsed=0:02:50.58    \nframe=   51 fps=0.3 q=38.6 size=     256KiB time=00:00:01.63 bitrate=1284.2kbits/s speed=0.00955x elapsed=0:02:51.10    \nframe=   51 fps=0.3 q=38.6 size=     256KiB time=00:00:01.63 bitrate=1284.2kbits/s speed=0.00952x elapsed=0:02:51.62    \nframe=   51 fps=0.3 q=38.6 size=     256KiB time=00:00:01.63 bitrate=1284.2kbits/s speed=0.00949x elapsed=0:02:52.13    \nframe=   51 fps=0.3 q=38.6 size=     256KiB time=00:00:01.63 bitrate=1284.2kbits/s speed=0.00946x elapsed=0:02:52.64    \nframe=   52 fps=0.3 q=41.3 size=     512KiB time=00:00:01.66 bitrate=2516.8kbits/s speed=0.00962x elapsed=0:02:53.16    \nframe=   52 fps=0.3 q=41.3 size=     512KiB time=00:00:01.66 bitrate=2516.8kbits/s speed=0.0096x elapsed=0:02:53.68    \nframe=   52 fps=0.3 q=41.3 size=     512KiB time=00:00:01.66 bitrate=2516.8kbits/s speed=0.00957x elapsed=0:02:54.19    \nframe=   53 fps=0.3 q=43.0 size=     512KiB time=00:00:01.70 bitrate=2467.4kbits/s speed=0.00973x elapsed=0:02:54.72    \nframe=   53 fps=0.3 q=43.0 size=     512KiB time=00:00:01.70 bitrate=2467.4kbits/s speed=0.0097x elapsed=0:02:55.25    \nframe=   53 fps=0.3 q=43.0 size=     512KiB time=00:00:01.70 bitrate=2467.4kbits/s speed=0.00967x elapsed=0:02:55.79    \nframe=   53 fps=0.3 q=43.0 size=     512KiB time=00:00:01.70 bitrate=2467.4kbits/s speed=0.00964x elapsed=0:02:56.31    \nframe=   54 fps=0.3 q=43.3 size=     512KiB time=00:00:01.73 bitrate=2420.0kbits/s speed=0.0098x elapsed=0:02:56.82    \nframe=   54 fps=0.3 q=43.3 size=     512KiB time=00:00:01.73 bitrate=2420.0kbits/s speed=0.00977x elapsed=0:02:57.34    \nframe=   54 fps=0.3 q=43.3 size=     512KiB time=00:00:01.73 bitrate=2420.0kbits/s speed=0.00975x elapsed=0:02:57.84    \nframe=   54 fps=0.3 q=43.3 size=     512KiB time=00:00:01.73 bitrate=2420.0kbits/s speed=0.00971x elapsed=0:02:58.42    \nframe=   54 fps=0.3 q=43.3 size=     512KiB time=00:00:01.73 bitrate=2420.0kbits/s speed=0.00969x elapsed=0:02:58.95    \nframe=   54 fps=0.3 q=43.3 size=     512KiB time=00:00:01.73 bitrate=2420.0kbits/s speed=0.00966x elapsed=0:02:59.46    \nframe=   54 fps=0.3 q=43.3 size=     512KiB time=00:00:01.73 bitrate=2420.0kbits/s speed=0.00963x elapsed=0:02:59.98    \nframe=   55 fps=0.3 q=38.6 size=     512KiB time=00:00:01.76 bitrate=2374.3kbits/s speed=0.00979x elapsed=0:03:00.51    \nframe=   55 fps=0.3 q=38.6 size=     512KiB time=00:00:01.76 bitrate=2374.3kbits/s speed=0.00976x elapsed=0:03:01.04    \nframe=   55 fps=0.3 q=38.6 size=     512KiB time=00:00:01.76 bitrate=2374.3kbits/s speed=0.00973x elapsed=0:03:01.55    \nframe=   55 fps=0.3 q=38.6 size=     512KiB time=00:00:01.76 bitrate=2374.3kbits/s speed=0.0097x elapsed=0:03:02.06    \nframe=   55 fps=0.3 q=38.6 size=     512KiB time=00:00:01.76 bitrate=2374.3kbits/s speed=0.00968x elapsed=0:03:02.58    \nframe=   55 fps=0.3 q=38.6 size=     512KiB time=00:00:01.76 bitrate=2374.3kbits/s speed=0.00965x elapsed=0:03:03.10    \nframe=   55 fps=0.3 q=38.6 size=     512KiB time=00:00:01.76 bitrate=2374.3kbits/s speed=0.00962x elapsed=0:03:03.62    \nframe=   55 fps=0.3 q=38.6 size=     512KiB time=00:00:01.76 bitrate=2374.3kbits/s speed=0.00959x elapsed=0:03:04.23    \nframe=   56 fps=0.3 q=41.7 size=     512KiB time=00:00:01.80 bitrate=2330.4kbits/s speed=0.00974x elapsed=0:03:04.74    \nframe=   56 fps=0.3 q=41.7 size=     512KiB time=00:00:01.80 bitrate=2330.4kbits/s speed=0.00971x elapsed=0:03:05.28    \nframe=   56 fps=0.3 q=41.7 size=     512KiB time=00:00:01.80 bitrate=2330.4kbits/s speed=0.00969x elapsed=0:03:05.80    \nframe=   56 fps=0.3 q=41.7 size=     512KiB time=00:00:01.80 bitrate=2330.4kbits/s speed=0.00966x elapsed=0:03:06.31    \nframe=   56 fps=0.3 q=41.7 size=     512KiB time=00:00:01.80 bitrate=2330.4kbits/s speed=0.00963x elapsed=0:03:06.83    \nframe=   57 fps=0.3 q=43.5 size=     512KiB time=00:00:01.83 bitrate=2288.0kbits/s speed=0.00979x elapsed=0:03:07.34    \nframe=   57 fps=0.3 q=43.5 size=     512KiB time=00:00:01.83 bitrate=2288.0kbits/s speed=0.00976x elapsed=0:03:07.87    \nframe=   57 fps=0.3 q=43.5 size=     512KiB time=00:00:01.83 bitrate=2288.0kbits/s speed=0.00973x elapsed=0:03:08.38    \nframe=   58 fps=0.3 q=43.4 size=     512KiB time=00:00:01.86 bitrate=2247.1kbits/s speed=0.00988x elapsed=0:03:08.92    \nframe=   58 fps=0.3 q=43.4 size=     512KiB time=00:00:01.86 bitrate=2247.1kbits/s speed=0.00985x elapsed=0:03:09.45    \nframe=   58 fps=0.3 q=43.4 size=     512KiB time=00:00:01.86 bitrate=2247.1kbits/s speed=0.00983x elapsed=0:03:09.97    \nframe=   58 fps=0.3 q=43.4 size=     512KiB time=00:00:01.86 bitrate=2247.1kbits/s speed=0.0098x elapsed=0:03:10.50    \nframe=   58 fps=0.3 q=43.4 size=     512KiB time=00:00:01.86 bitrate=2247.1kbits/s speed=0.00977x elapsed=0:03:11.00    \nframe=   59 fps=0.3 q=38.4 size=     512KiB time=00:00:01.90 bitrate=2207.7kbits/s speed=0.00992x elapsed=0:03:11.55    \nframe=   59 fps=0.3 q=38.4 size=     512KiB time=00:00:01.90 bitrate=2207.7kbits/s speed=0.00989x elapsed=0:03:12.07    \nframe=   59 fps=0.3 q=38.4 size=     512KiB time=00:00:01.90 bitrate=2207.7kbits/s speed=0.00986x elapsed=0:03:12.61    \nframe=   60 fps=0.3 q=41.2 size=     512KiB time=00:00:01.90 bitrate=2207.7kbits/s speed=0.00984x elapsed=0:03:13.14    \nframe=   60 fps=0.3 q=41.2 size=     512KiB time=00:00:01.93 bitrate=2169.7kbits/s speed=0.00998x elapsed=0:03:13.67    \nframe=   60 fps=0.3 q=41.2 size=     512KiB time=00:00:01.93 bitrate=2169.7kbits/s speed=0.00996x elapsed=0:03:14.19    \nframe=   60 fps=0.3 q=41.2 size=     512KiB time=00:00:01.93 bitrate=2169.7kbits/s speed=0.00993x elapsed=0:03:14.71    \nframe=   60 fps=0.3 q=41.2 size=     512KiB time=00:00:01.93 bitrate=2169.7kbits/s speed=0.0099x elapsed=0:03:15.30    \nframe=   60 fps=0.3 q=41.2 size=     512KiB time=00:00:01.93 bitrate=2169.7kbits/s speed=0.00987x elapsed=0:03:15.82    \nframe=   60 fps=0.3 q=41.2 size=     512KiB time=00:00:01.93 bitrate=2169.7kbits/s speed=0.00985x elapsed=0:03:16.34    \nframe=   61 fps=0.3 q=43.0 size=     512KiB time=00:00:01.96 bitrate=2132.9kbits/s speed=0.00999x elapsed=0:03:16.87    \nframe=   61 fps=0.3 q=43.0 size=     512KiB time=00:00:01.96 bitrate=2132.9kbits/s speed=0.00996x elapsed=0:03:17.40    \nframe=   61 fps=0.3 q=43.0 size=     512KiB time=00:00:01.96 bitrate=2132.9kbits/s speed=0.00994x elapsed=0:03:17.92    \nframe=   62 fps=0.3 q=38.4 size=     512KiB time=00:00:02.00 bitrate=2097.3kbits/s speed=0.0101x elapsed=0:03:18.44    \nframe=   63 fps=0.3 q=41.0 size=     512KiB time=00:00:02.03 bitrate=2062.9kbits/s speed=0.0102x elapsed=0:03:18.95    \nframe=   64 fps=0.3 q=42.9 size=     512KiB time=00:00:02.06 bitrate=2029.7kbits/s speed=0.0104x elapsed=0:03:19.47    \nframe=   64 fps=0.3 q=42.9 size=     512KiB time=00:00:02.06 bitrate=2029.7kbits/s speed=0.0103x elapsed=0:03:20.02    \nframe=   64 fps=0.3 q=42.9 size=     512KiB time=00:00:02.06 bitrate=2029.7kbits/s speed=0.0103x elapsed=0:03:20.61    \nframe=   64 fps=0.3 q=42.9 size=     512KiB time=00:00:02.06 bitrate=2029.7kbits/s speed=0.0103x elapsed=0:03:21.13    \nframe=   65 fps=0.3 q=43.1 size=     512KiB time=00:00:02.10 bitrate=1997.5kbits/s speed=0.0104x elapsed=0:03:21.64    \nframe=   65 fps=0.3 q=43.1 size=     512KiB time=00:00:02.10 bitrate=1997.5kbits/s speed=0.0104x elapsed=0:03:22.16    \nframe=   66 fps=0.3 q=38.6 size=     512KiB time=00:00:02.13 bitrate=1966.2kbits/s speed=0.0105x elapsed=0:03:22.68    \nframe=   66 fps=0.3 q=38.6 size=     512KiB time=00:00:02.13 bitrate=1966.2kbits/s speed=0.0105x elapsed=0:03:23.23    \nframe=   66 fps=0.3 q=38.6 size=     512KiB time=00:00:02.13 bitrate=1966.2kbits/s speed=0.0105x elapsed=0:03:23.77    \nframe=   66 fps=0.3 q=38.6 size=     512KiB time=00:00:02.13 bitrate=1966.2kbits/s speed=0.0104x elapsed=0:03:24.29    \nframe=   67 fps=0.3 q=39.4 size=     512KiB time=00:00:02.16 bitrate=1936.0kbits/s speed=0.0106x elapsed=0:03:24.81    \nframe=   67 fps=0.3 q=39.4 size=     512KiB time=00:00:02.16 bitrate=1936.0kbits/s speed=0.0106x elapsed=0:03:25.33    \nframe=   67 fps=0.3 q=39.4 size=     512KiB time=00:00:02.16 bitrate=1936.0kbits/s speed=0.0105x elapsed=0:03:25.85    \nframe=   69 fps=0.3 q=42.9 size=     512KiB time=00:00:02.23 bitrate=1878.2kbits/s speed=0.0108x elapsed=0:03:26.41    \nframe=   69 fps=0.3 q=42.9 size=     512KiB time=00:00:02.23 bitrate=1878.2kbits/s speed=0.0108x elapsed=0:03:26.95    \nframe=   69 fps=0.3 q=42.9 size=     512KiB time=00:00:02.23 bitrate=1878.2kbits/s speed=0.0108x elapsed=0:03:27.46    \nframe=   69 fps=0.3 q=42.9 size=     512KiB time=00:00:02.23 bitrate=1878.2kbits/s speed=0.0107x elapsed=0:03:28.00    \nframe=   70 fps=0.3 q=42.7 size=     512KiB time=00:00:02.26 bitrate=1850.6kbits/s speed=0.0109x elapsed=0:03:28.52    \nframe=   71 fps=0.3 q=37.8 size=     512KiB time=00:00:02.30 bitrate=1823.8kbits/s speed=0.011x elapsed=0:03:29.06    \nframe=   71 fps=0.3 q=37.8 size=     512KiB time=00:00:02.30 bitrate=1823.8kbits/s speed=0.011x elapsed=0:03:29.58    \nframe=   71 fps=0.3 q=37.8 size=     512KiB time=00:00:02.30 bitrate=1823.8kbits/s speed=0.0109x elapsed=0:03:30.13    \nframe=   72 fps=0.3 q=41.2 size=     512KiB time=00:00:02.33 bitrate=1797.7kbits/s speed=0.0111x elapsed=0:03:30.64    \nframe=   72 fps=0.3 q=41.2 size=     512KiB time=00:00:02.33 bitrate=1797.7kbits/s speed=0.011x elapsed=0:03:31.19    \nframe=   73 fps=0.3 q=42.8 size=     512KiB time=00:00:02.36 bitrate=1772.4kbits/s speed=0.0112x elapsed=0:03:31.71    \nframe=   73 fps=0.3 q=42.8 size=     512KiB time=00:00:02.36 bitrate=1772.4kbits/s speed=0.0111x elapsed=0:03:32.25    \nframe=   74 fps=0.3 q=42.4 size=     512KiB time=00:00:02.40 bitrate=1747.8kbits/s speed=0.0113x elapsed=0:03:32.78    \nframe=   74 fps=0.3 q=42.4 size=     512KiB time=00:00:02.40 bitrate=1747.8kbits/s speed=0.0113x elapsed=0:03:33.29    \nframe=   74 fps=0.3 q=42.4 size=     512KiB time=00:00:02.40 bitrate=1747.8kbits/s speed=0.0112x elapsed=0:03:33.80    \nframe=   74 fps=0.3 q=42.4 size=     512KiB time=00:00:02.40 bitrate=1747.8kbits/s speed=0.0112x elapsed=0:03:34.32    \nframe=   74 fps=0.3 q=42.4 size=     512KiB time=00:00:02.40 bitrate=1747.8kbits/s speed=0.0112x elapsed=0:03:34.83    \nframe=   74 fps=0.3 q=42.4 size=     512KiB time=00:00:02.40 bitrate=1747.8kbits/s speed=0.0111x elapsed=0:03:35.38    \nframe=   75 fps=0.3 q=38.4 size=     512KiB time=00:00:02.43 bitrate=1723.8kbits/s speed=0.0113x elapsed=0:03:35.94    \nframe=   75 fps=0.3 q=38.4 size=     512KiB time=00:00:02.43 bitrate=1723.8kbits/s speed=0.0112x elapsed=0:03:36.45    \nframe=   75 fps=0.3 q=38.4 size=     512KiB time=00:00:02.43 bitrate=1723.8kbits/s speed=0.0112x elapsed=0:03:37.00    \nframe=   75 fps=0.3 q=38.4 size=     512KiB time=00:00:02.43 bitrate=1723.8kbits/s speed=0.0112x elapsed=0:03:37.50    \nframe=   76 fps=0.3 q=40.8 size=     512KiB time=00:00:02.46 bitrate=1700.5kbits/s speed=0.0113x elapsed=0:03:38.02    \nframe=   76 fps=0.3 q=40.8 size=     512KiB time=00:00:02.46 bitrate=1700.5kbits/s speed=0.0113x elapsed=0:03:38.54    \nframe=   77 fps=0.4 q=42.6 size=     768KiB time=00:00:02.50 bitrate=2516.7kbits/s speed=0.0114x elapsed=0:03:39.09    \nframe=   77 fps=0.4 q=42.6 size=     768KiB time=00:00:02.50 bitrate=2516.7kbits/s speed=0.0114x elapsed=0:03:39.62    \nframe=   78 fps=0.4 q=38.4 size=     768KiB time=00:00:02.53 bitrate=2483.6kbits/s speed=0.0115x elapsed=0:03:40.21    \nframe=   78 fps=0.4 q=38.4 size=     768KiB time=00:00:02.53 bitrate=2483.6kbits/s speed=0.0115x elapsed=0:03:40.73    \nframe=   78 fps=0.4 q=38.4 size=     768KiB time=00:00:02.53 bitrate=2483.6kbits/s speed=0.0114x elapsed=0:03:41.32    \nframe=   78 fps=0.4 q=38.4 size=     768KiB time=00:00:02.53 bitrate=2483.6kbits/s speed=0.0114x elapsed=0:03:41.84    \nframe=   78 fps=0.4 q=38.4 size=     768KiB time=00:00:02.53 bitrate=2483.6kbits/s speed=0.0114x elapsed=0:03:42.46    \nframe=   78 fps=0.3 q=38.4 size=     768KiB time=00:00:02.53 bitrate=2483.6kbits/s speed=0.0114x elapsed=0:03:43.06    \nframe=   78 fps=0.3 q=38.4 size=     768KiB time=00:00:02.53 bitrate=2483.6kbits/s speed=0.0113x elapsed=0:03:43.63    \nframe=   78 fps=0.3 q=38.4 size=     768KiB time=00:00:02.53 bitrate=2483.6kbits/s speed=0.0113x elapsed=0:03:44.15    \nframe=   78 fps=0.3 q=38.4 size=     768KiB time=00:00:02.53 bitrate=2483.6kbits/s speed=0.0113x elapsed=0:03:44.67    \nframe=   78 fps=0.3 q=38.4 size=     768KiB time=00:00:02.53 bitrate=2483.6kbits/s speed=0.0112x elapsed=0:03:45.20    \nframe=   79 fps=0.3 q=41.2 size=     768KiB time=00:00:02.56 bitrate=2451.4kbits/s speed=0.0114x elapsed=0:03:45.73    \nframe=   79 fps=0.3 q=41.2 size=     768KiB time=00:00:02.56 bitrate=2451.4kbits/s speed=0.0113x elapsed=0:03:46.30    \nframe=   80 fps=0.4 q=42.9 size=     768KiB time=00:00:02.60 bitrate=2419.9kbits/s speed=0.0115x elapsed=0:03:46.98    \nframe=   80 fps=0.4 q=42.9 size=     768KiB time=00:00:02.60 bitrate=2419.9kbits/s speed=0.0114x elapsed=0:03:47.49    \nframe=   80 fps=0.4 q=42.9 size=     768KiB time=00:00:02.60 bitrate=2419.9kbits/s speed=0.0114x elapsed=0:03:48.00    \nframe=   80 fps=0.4 q=42.9 size=     768KiB time=00:00:02.60 bitrate=2419.9kbits/s speed=0.0114x elapsed=0:03:48.54    \nframe=   81 fps=0.4 q=38.3 size=     768KiB time=00:00:02.60 bitrate=2419.9kbits/s speed=0.0113x elapsed=0:03:49.10    \nframe=   81 fps=0.4 q=38.3 size=     768KiB time=00:00:02.63 bitrate=2389.3kbits/s speed=0.0115x elapsed=0:03:49.66    \nframe=   81 fps=0.4 q=38.3 size=     768KiB time=00:00:02.63 bitrate=2389.3kbits/s speed=0.0114x elapsed=0:03:50.17    \nframe=   81 fps=0.4 q=38.3 size=     768KiB time=00:00:02.63 bitrate=2389.3kbits/s speed=0.0114x elapsed=0:03:50.69    \nframe=   81 fps=0.4 q=38.3 size=     768KiB time=00:00:02.63 bitrate=2389.3kbits/s speed=0.0114x elapsed=0:03:51.23    \nframe=   81 fps=0.3 q=38.3 size=     768KiB time=00:00:02.63 bitrate=2389.3kbits/s speed=0.0114x elapsed=0:03:51.74    \nframe=   81 fps=0.3 q=38.3 size=     768KiB time=00:00:02.63 bitrate=2389.3kbits/s speed=0.0113x elapsed=0:03:52.26    \nframe=   81 fps=0.3 q=38.3 size=     768KiB time=00:00:02.63 bitrate=2389.3kbits/s speed=0.0113x elapsed=0:03:52.82    \nframe=   81 fps=0.3 q=38.3 size=     768KiB time=00:00:02.63 bitrate=2389.3kbits/s speed=0.0113x elapsed=0:03:53.35    \nframe=   81 fps=0.3 q=38.3 size=     768KiB time=00:00:02.63 bitrate=2389.3kbits/s speed=0.0113x elapsed=0:03:53.86    \nframe=   82 fps=0.3 q=40.7 size=     768KiB time=00:00:02.66 bitrate=2359.4kbits/s speed=0.0114x elapsed=0:03:54.38    \nframe=   82 fps=0.3 q=40.7 size=     768KiB time=00:00:02.66 bitrate=2359.4kbits/s speed=0.0114x elapsed=0:03:54.90    \nframe=   82 fps=0.3 q=40.7 size=     768KiB time=00:00:02.66 bitrate=2359.4kbits/s speed=0.0113x elapsed=0:03:55.42    \nframe=   82 fps=0.3 q=40.7 size=     768KiB time=00:00:02.66 bitrate=2359.4kbits/s speed=0.0113x elapsed=0:03:55.95    \nframe=   82 fps=0.3 q=40.7 size=     768KiB time=00:00:02.66 bitrate=2359.4kbits/s speed=0.0113x elapsed=0:03:56.47    \nframe=   84 fps=0.4 q=42.7 size=     768KiB time=00:00:02.73 bitrate=2301.9kbits/s speed=0.0115x elapsed=0:03:56.98    \nframe=   84 fps=0.4 q=42.7 size=     768KiB time=00:00:02.73 bitrate=2301.9kbits/s speed=0.0115x elapsed=0:03:57.51    \nframe=   84 fps=0.4 q=42.7 size=     768KiB time=00:00:02.73 bitrate=2301.9kbits/s speed=0.0115x elapsed=0:03:58.03    \nframe=   84 fps=0.4 q=42.7 size=     768KiB time=00:00:02.73 bitrate=2301.9kbits/s speed=0.0115x elapsed=0:03:58.56    \nframe=   85 fps=0.4 q=42.8 size=     768KiB time=00:00:02.76 bitrate=2274.1kbits/s speed=0.0116x elapsed=0:03:59.07    \nframe=   85 fps=0.4 q=42.8 size=     768KiB time=00:00:02.76 bitrate=2274.1kbits/s speed=0.0115x elapsed=0:03:59.59    \nframe=   85 fps=0.4 q=42.8 size=     768KiB time=00:00:02.76 bitrate=2274.1kbits/s speed=0.0115x elapsed=0:04:00.11    \nframe=   85 fps=0.4 q=42.8 size=     768KiB time=00:00:02.76 bitrate=2274.1kbits/s speed=0.0115x elapsed=0:04:00.61    \nframe=   86 fps=0.4 q=37.8 size=     768KiB time=00:00:02.80 bitrate=2247.1kbits/s speed=0.0116x elapsed=0:04:01.13    \nframe=   86 fps=0.4 q=37.8 size=     768KiB time=00:00:02.80 bitrate=2247.1kbits/s speed=0.0116x elapsed=0:04:01.64    \nframe=   86 fps=0.4 q=37.8 size=     768KiB time=00:00:02.80 bitrate=2247.1kbits/s speed=0.0116x elapsed=0:04:02.16    \nframe=   87 fps=0.4 q=40.2 size=     768KiB time=00:00:02.83 bitrate=2220.6kbits/s speed=0.0117x elapsed=0:04:02.68    \nframe=   88 fps=0.4 q=42.2 size=     768KiB time=00:00:02.86 bitrate=2194.8kbits/s speed=0.0118x elapsed=0:04:03.20    \nframe=   88 fps=0.4 q=42.2 size=     768KiB time=00:00:02.86 bitrate=2194.8kbits/s speed=0.0118x elapsed=0:04:03.72    \nframe=   88 fps=0.4 q=42.2 size=     768KiB time=00:00:02.86 bitrate=2194.8kbits/s speed=0.0117x elapsed=0:04:04.24    \nframe=   88 fps=0.4 q=42.2 size=     768KiB time=00:00:02.86 bitrate=2194.8kbits/s speed=0.0117x elapsed=0:04:04.76    \nframe=   88 fps=0.4 q=42.2 size=     768KiB time=00:00:02.86 bitrate=2194.8kbits/s speed=0.0117x elapsed=0:04:05.27    \nframe=   88 fps=0.4 q=42.2 size=     768KiB time=00:00:02.86 bitrate=2194.8kbits/s speed=0.0117x elapsed=0:04:05.79    \nframe=   89 fps=0.4 q=38.1 size=     768KiB time=00:00:02.90 bitrate=2169.6kbits/s speed=0.0118x elapsed=0:04:06.30    \nframe=   89 fps=0.4 q=38.1 size=     768KiB time=00:00:02.90 bitrate=2169.6kbits/s speed=0.0117x elapsed=0:04:06.82    \nframe=   89 fps=0.4 q=38.1 size=     768KiB time=00:00:02.90 bitrate=2169.6kbits/s speed=0.0117x elapsed=0:04:07.34    \nframe=   89 fps=0.4 q=38.1 size=     768KiB time=00:00:02.90 bitrate=2169.6kbits/s speed=0.0117x elapsed=0:04:07.86    \nframe=   90 fps=0.4 q=41.1 size=     768KiB time=00:00:02.93 bitrate=2144.9kbits/s speed=0.0118x elapsed=0:04:08.39    \nframe=   90 fps=0.4 q=41.1 size=     768KiB time=00:00:02.93 bitrate=2144.9kbits/s speed=0.0118x elapsed=0:04:08.89    \nframe=   90 fps=0.4 q=41.1 size=     768KiB time=00:00:02.93 bitrate=2144.9kbits/s speed=0.0118x elapsed=0:04:09.41    \nframe=   90 fps=0.4 q=41.1 size=     768KiB time=00:00:02.93 bitrate=2144.9kbits/s speed=0.0117x elapsed=0:04:09.93    \nframe=   91 fps=0.4 q=42.5 size=     768KiB time=00:00:02.96 bitrate=2120.8kbits/s speed=0.0118x elapsed=0:04:10.45    \nframe=   93 fps=0.4 q=42.4 size=     768KiB time=00:00:03.03 bitrate=2074.2kbits/s speed=0.0121x elapsed=0:04:10.95    \nframe=   93 fps=0.4 q=42.4 size=     768KiB time=00:00:03.03 bitrate=2074.2kbits/s speed=0.0121x elapsed=0:04:11.47    \nframe=   93 fps=0.4 q=42.4 size=     768KiB time=00:00:03.03 bitrate=2074.2kbits/s speed=0.012x elapsed=0:04:12.01    \nframe=   93 fps=0.4 q=42.4 size=     768KiB time=00:00:03.03 bitrate=2074.2kbits/s speed=0.012x elapsed=0:04:12.53    \nframe=   93 fps=0.4 q=42.4 size=     768KiB time=00:00:03.03 bitrate=2074.2kbits/s speed=0.012x elapsed=0:04:13.04    \nframe=   93 fps=0.4 q=42.4 size=     768KiB time=00:00:03.03 bitrate=2074.2kbits/s speed=0.012x elapsed=0:04:13.56    \nframe=   93 fps=0.4 q=42.4 size=     768KiB time=00:00:03.03 bitrate=2074.2kbits/s speed=0.0119x elapsed=0:04:14.07    \nframe=   93 fps=0.4 q=42.4 size=     768KiB time=00:00:03.03 bitrate=2074.2kbits/s speed=0.0119x elapsed=0:04:14.59    \nframe=   93 fps=0.4 q=42.4 size=     768KiB time=00:00:03.03 bitrate=2074.2kbits/s speed=0.0119x elapsed=0:04:15.10    \nframe=   94 fps=0.4 q=38.3 size=     768KiB time=00:00:03.06 bitrate=2051.7kbits/s speed=0.012x elapsed=0:04:15.62    \nframe=   94 fps=0.4 q=38.3 size=     768KiB time=00:00:03.06 bitrate=2051.7kbits/s speed=0.012x elapsed=0:04:16.15    \nframe=   94 fps=0.4 q=38.3 size=     768KiB time=00:00:03.06 bitrate=2051.7kbits/s speed=0.0119x elapsed=0:04:16.66    \nframe=   94 fps=0.4 q=38.3 size=     768KiB time=00:00:03.06 bitrate=2051.7kbits/s speed=0.0119x elapsed=0:04:17.18    \nframe=   94 fps=0.4 q=38.3 size=     768KiB time=00:00:03.06 bitrate=2051.7kbits/s speed=0.0119x elapsed=0:04:17.70    \nframe=   95 fps=0.4 q=40.9 size=     768KiB time=00:00:03.10 bitrate=2029.6kbits/s speed=0.012x elapsed=0:04:18.22    \nframe=   95 fps=0.4 q=40.9 size=     768KiB time=00:00:03.10 bitrate=2029.6kbits/s speed=0.012x elapsed=0:04:18.74    \nframe=   95 fps=0.4 q=40.9 size=     768KiB time=00:00:03.10 bitrate=2029.6kbits/s speed=0.012x elapsed=0:04:19.26    \nframe=   95 fps=0.4 q=40.9 size=     768KiB time=00:00:03.10 bitrate=2029.6kbits/s speed=0.0119x elapsed=0:04:19.77    \nframe=   97 fps=0.4 q=42.6 size=     768KiB time=00:00:03.16 bitrate=1986.9kbits/s speed=0.0122x elapsed=0:04:20.29    \nframe=   97 fps=0.4 q=42.6 size=     768KiB time=00:00:03.16 bitrate=1986.9kbits/s speed=0.0121x elapsed=0:04:20.82    \nframe=   98 fps=0.4 q=43.1 size=     768KiB time=00:00:03.20 bitrate=1966.2kbits/s speed=0.0122x elapsed=0:04:21.34    \nframe=   98 fps=0.4 q=43.1 size=     768KiB time=00:00:03.20 bitrate=1966.2kbits/s speed=0.0122x elapsed=0:04:21.85    \nframe=   98 fps=0.4 q=43.1 size=     768KiB time=00:00:03.20 bitrate=1966.2kbits/s speed=0.0122x elapsed=0:04:22.36    \nframe=   98 fps=0.4 q=43.1 size=     768KiB time=00:00:03.20 bitrate=1966.2kbits/s speed=0.0122x elapsed=0:04:22.88    \nframe=   98 fps=0.4 q=43.1 size=     768KiB time=00:00:03.20 bitrate=1966.2kbits/s speed=0.0121x elapsed=0:04:23.40    \nframe=   98 fps=0.4 q=43.1 size=     768KiB time=00:00:03.20 bitrate=1966.2kbits/s speed=0.0121x elapsed=0:04:23.92    \nframe=   98 fps=0.4 q=43.1 size=     768KiB time=00:00:03.20 bitrate=1966.2kbits/s speed=0.0121x elapsed=0:04:24.44    \nframe=   99 fps=0.4 q=38.4 size=     768KiB time=00:00:03.23 bitrate=1945.9kbits/s speed=0.0122x elapsed=0:04:24.96    \nframe=   99 fps=0.4 q=38.4 size=     768KiB time=00:00:03.23 bitrate=1945.9kbits/s speed=0.0122x elapsed=0:04:25.49    \nframe=   99 fps=0.4 q=38.4 size=     768KiB time=00:00:03.23 bitrate=1945.9kbits/s speed=0.0122x elapsed=0:04:26.03    \nframe=  100 fps=0.4 q=41.7 size=     768KiB time=00:00:03.26 bitrate=1926.1kbits/s speed=0.0123x elapsed=0:04:26.56    \nframe=  100 fps=0.4 q=41.7 size=     768KiB time=00:00:03.26 bitrate=1926.1kbits/s speed=0.0122x elapsed=0:04:27.07    \nframe=  100 fps=0.4 q=41.7 size=     768KiB time=00:00:03.26 bitrate=1926.1kbits/s speed=0.0122x elapsed=0:04:27.58    \nframe=  100 fps=0.4 q=41.7 size=     768KiB time=00:00:03.26 bitrate=1926.1kbits/s speed=0.0122x elapsed=0:04:28.13    \nframe=  100 fps=0.4 q=41.7 size=     768KiB time=00:00:03.26 bitrate=1926.1kbits/s speed=0.0122x elapsed=0:04:28.71    \nframe=  101 fps=0.4 q=42.8 size=     768KiB time=00:00:03.30 bitrate=1906.6kbits/s speed=0.0123x elapsed=0:04:29.26    \nframe=  101 fps=0.4 q=42.8 size=     768KiB time=00:00:03.30 bitrate=1906.6kbits/s speed=0.0122x elapsed=0:04:29.79    \nframe=  103 fps=0.4 q=43.1 size=     768KiB time=00:00:03.36 bitrate=1868.9kbits/s speed=0.0125x elapsed=0:04:30.30    \nframe=  103 fps=0.4 q=43.1 size=     768KiB time=00:00:03.36 bitrate=1868.9kbits/s speed=0.0124x elapsed=0:04:30.82    \nframe=  103 fps=0.4 q=43.1 size=     768KiB time=00:00:03.36 bitrate=1868.9kbits/s speed=0.0124x elapsed=0:04:31.34    \nframe=  103 fps=0.4 q=43.1 size=     768KiB time=00:00:03.36 bitrate=1868.9kbits/s speed=0.0124x elapsed=0:04:31.85    \nframe=  103 fps=0.4 q=43.1 size=     768KiB time=00:00:03.36 bitrate=1868.9kbits/s speed=0.0124x elapsed=0:04:32.40    \nframe=  103 fps=0.4 q=43.1 size=     768KiB time=00:00:03.36 bitrate=1868.9kbits/s speed=0.0123x elapsed=0:04:32.91    \nframe=  104 fps=0.4 q=38.2 size=    1024KiB time=00:00:03.40 bitrate=2467.3kbits/s speed=0.0124x elapsed=0:04:33.43    \nframe=  104 fps=0.4 q=38.2 size=    1024KiB time=00:00:03.40 bitrate=2467.3kbits/s speed=0.0124x elapsed=0:04:33.95    \nframe=  104 fps=0.4 q=38.2 size=    1024KiB time=00:00:03.40 bitrate=2467.3kbits/s speed=0.0124x elapsed=0:04:34.46    \nframe=  105 fps=0.4 q=43.0 size=    1024KiB time=00:00:03.43 bitrate=2443.4kbits/s speed=0.0125x elapsed=0:04:34.97    \nframe=  105 fps=0.4 q=43.0 size=    1024KiB time=00:00:03.43 bitrate=2443.4kbits/s speed=0.0125x elapsed=0:04:35.50    \nframe=  105 fps=0.4 q=43.0 size=    1024KiB time=00:00:03.43 bitrate=2443.4kbits/s speed=0.0124x elapsed=0:04:36.02    \nframe=  105 fps=0.4 q=43.0 size=    1024KiB time=00:00:03.43 bitrate=2443.4kbits/s speed=0.0124x elapsed=0:04:36.53    \nframe=  106 fps=0.4 q=38.6 size=    1024KiB time=00:00:03.46 bitrate=2419.9kbits/s speed=0.0125x elapsed=0:04:37.05    \nframe=  106 fps=0.4 q=38.6 size=    1024KiB time=00:00:03.46 bitrate=2419.9kbits/s speed=0.0125x elapsed=0:04:37.57    \nframe=  106 fps=0.4 q=38.6 size=    1024KiB time=00:00:03.46 bitrate=2419.9kbits/s speed=0.0125x elapsed=0:04:38.11    \nframe=  106 fps=0.4 q=38.6 size=    1024KiB time=00:00:03.46 bitrate=2419.9kbits/s speed=0.0124x elapsed=0:04:38.62    \nframe=  107 fps=0.4 q=41.2 size=    1024KiB time=00:00:03.50 bitrate=2396.8kbits/s speed=0.0125x elapsed=0:04:39.15    \nframe=  107 fps=0.4 q=41.2 size=    1024KiB time=00:00:03.50 bitrate=2396.8kbits/s speed=0.0125x elapsed=0:04:39.66    \nframe=  108 fps=0.4 q=42.6 size=    1024KiB time=00:00:03.53 bitrate=2374.2kbits/s speed=0.0126x elapsed=0:04:40.18    \nframe=  109 fps=0.4 q=43.0 size=    1024KiB time=00:00:03.56 bitrate=2352.0kbits/s speed=0.0127x elapsed=0:04:40.70    \nframe=  109 fps=0.4 q=43.0 size=    1024KiB time=00:00:03.56 bitrate=2352.0kbits/s speed=0.0127x elapsed=0:04:41.21    \nframe=  109 fps=0.4 q=43.0 size=    1024KiB time=00:00:03.56 bitrate=2352.0kbits/s speed=0.0127x elapsed=0:04:41.73    \nframe=  109 fps=0.4 q=43.0 size=    1024KiB time=00:00:03.56 bitrate=2352.0kbits/s speed=0.0126x elapsed=0:04:42.26    \nframe=  110 fps=0.4 q=38.8 size=    1024KiB time=00:00:03.60 bitrate=2330.3kbits/s speed=0.0127x elapsed=0:04:42.79    \nframe=  110 fps=0.4 q=38.8 size=    1024KiB time=00:00:03.60 bitrate=2330.3kbits/s speed=0.0127x elapsed=0:04:43.30    \nframe=  110 fps=0.4 q=38.8 size=    1024KiB time=00:00:03.60 bitrate=2330.3kbits/s speed=0.0127x elapsed=0:04:43.81    \nframe=  111 fps=0.4 q=41.4 size=    1024KiB time=00:00:03.63 bitrate=2308.9kbits/s speed=0.0128x elapsed=0:04:44.33    \nframe=  111 fps=0.4 q=41.4 size=    1024KiB time=00:00:03.63 bitrate=2308.9kbits/s speed=0.0128x elapsed=0:04:44.86    \nframe=  111 fps=0.4 q=41.4 size=    1024KiB time=00:00:03.63 bitrate=2308.9kbits/s speed=0.0127x elapsed=0:04:45.38    \nframe=  113 fps=0.4 q=39.1 size=    1024KiB time=00:00:03.70 bitrate=2267.3kbits/s speed=0.0129x elapsed=0:04:45.89    \nframe=  113 fps=0.4 q=39.1 size=    1024KiB time=00:00:03.70 bitrate=2267.3kbits/s speed=0.0129x elapsed=0:04:46.41    \nframe=  114 fps=0.4 q=41.9 size=    1024KiB time=00:00:03.73 bitrate=2247.0kbits/s speed=0.013x elapsed=0:04:46.93    \nframe=  114 fps=0.4 q=41.9 size=    1024KiB time=00:00:03.73 bitrate=2247.0kbits/s speed=0.013x elapsed=0:04:47.46    \nframe=  114 fps=0.4 q=41.9 size=    1024KiB time=00:00:03.73 bitrate=2247.0kbits/s speed=0.013x elapsed=0:04:48.00    \nframe=  114 fps=0.4 q=41.9 size=    1024KiB time=00:00:03.73 bitrate=2247.0kbits/s speed=0.0129x elapsed=0:04:48.52    \nframe=  114 fps=0.4 q=41.9 size=    1024KiB time=00:00:03.73 bitrate=2247.0kbits/s speed=0.0129x elapsed=0:04:49.04    \nframe=  116 fps=0.4 q=43.7 size=    1024KiB time=00:00:03.80 bitrate=2207.6kbits/s speed=0.0131x elapsed=0:04:49.56    \nframe=  117 fps=0.4 q=39.0 size=    1024KiB time=00:00:03.83 bitrate=2188.4kbits/s speed=0.0132x elapsed=0:04:50.08    \nframe=  117 fps=0.4 q=39.0 size=    1024KiB time=00:00:03.83 bitrate=2188.4kbits/s speed=0.0132x elapsed=0:04:50.61    \nframe=  117 fps=0.4 q=39.0 size=    1024KiB time=00:00:03.83 bitrate=2188.4kbits/s speed=0.0132x elapsed=0:04:51.13    \nframe=  117 fps=0.4 q=39.0 size=    1024KiB time=00:00:03.83 bitrate=2188.4kbits/s speed=0.0131x elapsed=0:04:51.65    \nframe=  118 fps=0.4 q=42.5 size=    1024KiB time=00:00:03.86 bitrate=2169.6kbits/s speed=0.0132x elapsed=0:04:52.17    \nframe=  118 fps=0.4 q=42.5 size=    1024KiB time=00:00:03.86 bitrate=2169.6kbits/s speed=0.0132x elapsed=0:04:52.69    \nframe=  118 fps=0.4 q=42.5 size=    1024KiB time=00:00:03.86 bitrate=2169.6kbits/s speed=0.0132x elapsed=0:04:53.22    \nframe=  118 fps=0.4 q=42.5 size=    1024KiB time=00:00:03.86 bitrate=2169.6kbits/s speed=0.0132x elapsed=0:04:53.74    \nframe=  118 fps=0.4 q=42.5 size=    1024KiB time=00:00:03.86 bitrate=2169.6kbits/s speed=0.0131x elapsed=0:04:54.29    \nframe=  119 fps=0.4 q=43.4 size=    1024KiB time=00:00:03.90 bitrate=2151.0kbits/s speed=0.0132x elapsed=0:04:54.80    \nframe=  121 fps=0.4 q=43.6 size=    1024KiB time=00:00:03.96 bitrate=2114.9kbits/s speed=0.0134x elapsed=0:04:55.32    \nframe=  121 fps=0.4 q=43.6 size=    1024KiB time=00:00:03.96 bitrate=2114.9kbits/s speed=0.0134x elapsed=0:04:55.83    \nframe=  121 fps=0.4 q=43.6 size=    1024KiB time=00:00:03.96 bitrate=2114.9kbits/s speed=0.0134x elapsed=0:04:56.35    \nframe=  122 fps=0.4 q=39.4 size=    1024KiB time=00:00:04.00 bitrate=2097.2kbits/s speed=0.0135x elapsed=0:04:56.87    \nframe=  122 fps=0.4 q=39.4 size=    1024KiB time=00:00:04.00 bitrate=2097.2kbits/s speed=0.0135x elapsed=0:04:57.38    \nframe=  123 fps=0.4 q=42.5 size=    1024KiB time=00:00:04.03 bitrate=2079.9kbits/s speed=0.0135x elapsed=0:04:57.90    \nframe=  123 fps=0.4 q=42.5 size=    1024KiB time=00:00:04.03 bitrate=2079.9kbits/s speed=0.0135x elapsed=0:04:58.41    \nframe=  124 fps=0.4 q=43.7 size=    1024KiB time=00:00:04.06 bitrate=2062.9kbits/s speed=0.0136x elapsed=0:04:58.92    \nframe=  125 fps=0.4 q=43.6 size=    1024KiB time=00:00:04.10 bitrate=2046.1kbits/s speed=0.0137x elapsed=0:04:59.44    \nframe=  126 fps=0.4 q=43.6 size=    1024KiB time=00:00:04.13 bitrate=2029.6kbits/s speed=0.0138x elapsed=0:04:59.96    \nframe=  126 fps=0.4 q=43.6 size=    1024KiB time=00:00:04.13 bitrate=2029.6kbits/s speed=0.0138x elapsed=0:05:00.48    \nframe=  127 fps=0.4 q=39.7 size=    1024KiB time=00:00:04.16 bitrate=2013.4kbits/s speed=0.0138x elapsed=0:05:00.99    \nframe=  127 fps=0.4 q=39.7 size=    1024KiB time=00:00:04.16 bitrate=2013.4kbits/s speed=0.0138x elapsed=0:05:01.51    \nframe=  128 fps=0.4 q=42.1 size=    1024KiB time=00:00:04.20 bitrate=1997.4kbits/s speed=0.0139x elapsed=0:05:02.02    \nframe=  128 fps=0.4 q=42.1 size=    1024KiB time=00:00:04.20 bitrate=1997.4kbits/s speed=0.0139x elapsed=0:05:02.54    \nframe=  129 fps=0.4 q=43.7 size=    1280KiB time=00:00:04.23 bitrate=2477.0kbits/s speed=0.014x elapsed=0:05:03.05    \nframe=  130 fps=0.4 q=43.9 size=    1280KiB time=00:00:04.26 bitrate=2457.7kbits/s speed=0.0141x elapsed=0:05:03.56    \nframe=  130 fps=0.4 q=43.9 size=    1280KiB time=00:00:04.26 bitrate=2457.7kbits/s speed=0.014x elapsed=0:05:04.09    \nframe=  131 fps=0.4 q=39.7 size=    1280KiB time=00:00:04.30 bitrate=2438.6kbits/s speed=0.0141x elapsed=0:05:04.61    \nframe=  131 fps=0.4 q=39.7 size=    1280KiB time=00:00:04.30 bitrate=2438.6kbits/s speed=0.0141x elapsed=0:05:05.13    \nframe=  131 fps=0.4 q=39.7 size=    1280KiB time=00:00:04.30 bitrate=2438.6kbits/s speed=0.0141x elapsed=0:05:05.65    \nframe=  132 fps=0.4 q=42.1 size=    1280KiB time=00:00:04.33 bitrate=2419.9kbits/s speed=0.0142x elapsed=0:05:06.17    \nframe=  133 fps=0.4 q=43.9 size=    1280KiB time=00:00:04.36 bitrate=2401.4kbits/s speed=0.0142x elapsed=0:05:06.68    \nframe=  134 fps=0.4 q=43.9 size=    1280KiB time=00:00:04.40 bitrate=2383.2kbits/s speed=0.0143x elapsed=0:05:07.19    \nframe=  134 fps=0.4 q=43.9 size=    1280KiB time=00:00:04.40 bitrate=2383.2kbits/s speed=0.0143x elapsed=0:05:07.70    \nframe=  135 fps=0.4 q=40.2 size=    1280KiB time=00:00:04.43 bitrate=2365.3kbits/s speed=0.0144x elapsed=0:05:08.23    \nframe=  135 fps=0.4 q=40.2 size=    1280KiB time=00:00:04.43 bitrate=2365.3kbits/s speed=0.0144x elapsed=0:05:08.74    \nframe=  136 fps=0.4 q=41.9 size=    1280KiB time=00:00:04.46 bitrate=2347.6kbits/s speed=0.0144x elapsed=0:05:09.26    \nframe=  137 fps=0.4 q=43.7 size=    1280KiB time=00:00:04.50 bitrate=2330.2kbits/s speed=0.0145x elapsed=0:05:09.77    \nframe=  137 fps=0.4 q=43.7 size=    1280KiB time=00:00:04.50 bitrate=2330.2kbits/s speed=0.0145x elapsed=0:05:10.28    \nframe=  138 fps=0.4 q=43.5 size=    1280KiB time=00:00:04.53 bitrate=2313.1kbits/s speed=0.0146x elapsed=0:05:10.81    \nframe=  139 fps=0.4 q=44.1 size=    1280KiB time=00:00:04.56 bitrate=2296.2kbits/s speed=0.0147x elapsed=0:05:11.32    \nframe=  139 fps=0.4 q=44.1 size=    1280KiB time=00:00:04.56 bitrate=2296.2kbits/s speed=0.0146x elapsed=0:05:11.84    \nframe=  140 fps=0.4 q=40.6 size=    1280KiB time=00:00:04.60 bitrate=2279.6kbits/s speed=0.0147x elapsed=0:05:12.35    \nframe=  140 fps=0.4 q=40.6 size=    1280KiB time=00:00:04.60 bitrate=2279.6kbits/s speed=0.0147x elapsed=0:05:12.87    \nframe=  141 fps=0.4 q=42.0 size=    1280KiB time=00:00:04.63 bitrate=2263.2kbits/s speed=0.0148x elapsed=0:05:13.38    \nframe=  141 fps=0.4 q=42.0 size=    1280KiB time=00:00:04.63 bitrate=2263.2kbits/s speed=0.0148x elapsed=0:05:13.89    \nframe=  142 fps=0.5 q=43.2 size=    1280KiB time=00:00:04.66 bitrate=2247.0kbits/s speed=0.0148x elapsed=0:05:14.41    \nframe=  143 fps=0.5 q=43.6 size=    1280KiB time=00:00:04.70 bitrate=2231.1kbits/s speed=0.0149x elapsed=0:05:14.93    \nframe=  143 fps=0.5 q=43.6 size=    1280KiB time=00:00:04.70 bitrate=2231.1kbits/s speed=0.0149x elapsed=0:05:15.44    \nframe=  143 fps=0.5 q=43.6 size=    1280KiB time=00:00:04.70 bitrate=2231.1kbits/s speed=0.0149x elapsed=0:05:15.96    \nframe=  144 fps=0.5 q=40.1 size=    1280KiB time=00:00:04.73 bitrate=2215.4kbits/s speed=0.015x elapsed=0:05:16.47    \nframe=  145 fps=0.5 q=41.2 size=    1280KiB time=00:00:04.76 bitrate=2199.9kbits/s speed=0.015x elapsed=0:05:16.99    \nframe=  145 fps=0.5 q=41.2 size=    1280KiB time=00:00:04.76 bitrate=2199.9kbits/s speed=0.015x elapsed=0:05:17.51    \nframe=  146 fps=0.5 q=42.5 size=    1280KiB time=00:00:04.80 bitrate=2184.6kbits/s speed=0.0151x elapsed=0:05:18.02    \nframe=  146 fps=0.5 q=42.5 size=    1280KiB time=00:00:04.80 bitrate=2184.6kbits/s speed=0.0151x elapsed=0:05:18.54    \nframe=  147 fps=0.5 q=40.4 size=    1280KiB time=00:00:04.83 bitrate=2169.5kbits/s speed=0.0151x elapsed=0:05:19.05    \nframe=  147 fps=0.5 q=40.4 size=    1280KiB time=00:00:04.83 bitrate=2169.5kbits/s speed=0.0151x elapsed=0:05:19.57    \nframe=  148 fps=0.5 q=39.9 size=    1280KiB time=00:00:04.86 bitrate=2154.7kbits/s speed=0.0152x elapsed=0:05:20.08    \nframe=  148 fps=0.5 q=39.9 size=    1280KiB time=00:00:04.86 bitrate=2154.7kbits/s speed=0.0152x elapsed=0:05:20.60    \n[mp4 @ 000001d2ab6e9740] Starting second pass: moving the moov atom to the beginning of the file\n[out#0/mp4 @ 000001d2ab6dabc0] video:1485KiB audio:0KiB subtitle:0KiB other streams:0KiB global headers:2KiB muxing overhead: 0.345054%\nframe=  150 fps=0.5 q=41.8 Lsize=    1490KiB time=00:00:04.93 bitrate=2474.9kbits/s speed=0.0154x elapsed=0:05:21.02    \nx265 [info]: frame I:      1, Avg QP:36.88  kb/s: 8887.20 \nx265 [info]: frame P:     39, Avg QP:38.99  kb/s: 4289.35 \nx265 [info]: frame B:    110, Avg QP:42.52  kb/s: 1715.50 \nx265 [info]: Weighted P-Frames: Y:15.4% UV:12.8%\n\nencoded 150 frames in 320.47s (0.47 fps), 2432.51 kb/s, Avg QP:41.57\n",
  "seconds": 321.3626570701599,
  "probe_out": {}
}